<svg width="390" height="159" viewBox="0 0 390 159" fill="none" xmlns="http://www.w3.org/2000/svg">
    <path fill-rule="evenodd" clip-rule="evenodd" d="M70.064 141.664C79.0035 141.664 88.0102 140.376 96.7707 137.431C103.949 140.378 111.462 141.664 118.751 141.664C123.044 141.664 127.361 141.271 131.625 140.439C133.103 140.614 134.605 140.704 136.127 140.704H141.503C143.415 142.769 145.583 144.648 147.995 146.293L150.107 147.733C150.438 147.959 150.774 148.18 151.112 148.395C156.89 152.072 162.989 154.149 166.972 155.348C173.569 157.411 180.406 158.464 187.354 158.464C201.991 158.464 218.896 154.234 232.043 140.704H238.359C240.753 140.704 243.096 140.482 245.37 140.058C247.643 140.482 249.985 140.704 252.375 140.704H269.175C273.526 140.704 277.722 139.968 281.638 138.609C288.349 140.697 295.296 141.664 302.235 141.664C309.068 141.664 316.109 140.724 323.088 138.496C329.428 140.954 335.57 141.664 340.344 141.664C349.145 141.664 362.598 139.251 373.366 127.916C373.578 127.693 373.787 127.467 373.994 127.239C382.151 118.223 385.64 107.191 385.64 96.752C385.64 96.4959 385.638 96.2393 385.633 95.982C386.153 93.8317 386.488 91.6199 386.625 89.3678L389.217 46.8397C389.855 36.3795 386.144 26.1204 378.963 18.4881C371.782 10.8558 361.767 6.528 351.288 6.528H332.38C324.414 1.66582 315.868 0 308.667 0C289.604 0 277.552 11.6411 271.698 20.5749C266.524 18.8254 260.923 17.856 254.967 17.856C250.764 17.856 246.667 18.3411 242.722 19.2725C241.943 19.2243 241.16 19.2 240.375 19.2H218.679C217.79 19.2 216.905 19.2311 216.024 19.2927C215.144 19.2311 214.258 19.2 213.37 19.2H191.098L190.971 19.2002C186.827 18.2597 182.726 17.856 178.809 17.856C170.674 17.856 162.934 19.5156 155.834 22.5886C146.311 18.8948 136.63 17.856 128.447 17.856C124.139 17.856 119.888 18.1916 115.709 18.8442C112.46 16.5255 109.222 14.8665 107.166 13.8732C95.1992 7.90766 82.3869 5.184 69.392 5.184C52.7434 5.184 34.6755 9.75789 20.2021 23.3938L20.1923 23.4031C4.988 37.7295 0 56.5148 0 73.52C0 90.2744 4.77266 108.957 19.6868 123.338C19.7973 123.445 19.9084 123.55 20.0201 123.656C34.9697 137.726 53.8356 141.664 70.064 141.664Z" fill="#78BC38"/>
    <path d="M92.52 71.984V94.544C91.688 95.376 90.28 96.368 88.296 97.52C86.312 98.672 84.328 99.632 82.344 100.4C77.16 102.576 71.4 103.664 65.064 103.664C54.504 103.664 46.504 101.104 41.064 95.984C35.688 90.8 33 83.312 33 73.52C33 63.728 35.752 56.24 41.256 51.056C46.824 45.808 54.536 43.184 64.392 43.184C72.072 43.184 79.08 44.784 85.416 47.984C86.888 48.688 87.976 49.296 88.68 49.808L89.64 50.576L85.416 59.12C82.408 57.84 78.824 57.2 74.664 57.2C64.04 57.2 58.728 62.704 58.728 73.712C58.728 79.408 59.944 83.856 62.376 87.056C64.808 90.256 68.008 91.856 71.976 91.856C73.576 91.856 75.144 91.536 76.68 90.896L74.472 81.68H67.368L69.288 71.984H92.52Z" fill="white"/>
    <path d="M113.751 103.664C108.823 103.664 104.759 102.224 101.559 99.344C98.423 96.464 96.855 92.4 96.855 87.152C96.855 81.84 98.647 78 102.231 75.632C105.815 73.2 110.135 71.984 115.191 71.984C120.247 71.984 124.631 72.784 128.343 74.384C127.511 69.072 124.151 66.416 118.263 66.416C115.575 66.416 112.247 66.96 108.279 68.048L105.879 59.408C111.639 57.04 117.495 55.856 123.447 55.856C140.599 55.856 149.175 63.152 149.175 77.744C149.175 82.736 148.599 89.648 147.447 98.48L146.967 102.704H131.127L130.551 97.424C126.199 101.584 120.599 103.664 113.751 103.664ZM122.391 91.76C125.271 91.76 127.735 90.96 129.783 89.36L129.207 83.024C127.607 81.936 125.815 81.392 123.831 81.392C121.911 81.392 120.311 81.872 119.031 82.832C117.815 83.792 117.207 84.976 117.207 86.384C117.207 87.792 117.687 89.04 118.647 90.128C119.607 91.216 120.855 91.76 122.391 91.76Z" fill="white"/>
    <path d="M182.354 120.464C179.218 120.464 176.145 119.984 173.137 119.024C170.129 118.128 167.922 117.232 166.514 116.336L164.402 114.896L168.626 106.256C171.378 107.6 173.937 108.272 176.305 108.272C180.657 108.272 183.858 106.896 185.906 104.144C187.954 101.392 188.978 98.224 188.978 94.64C188.978 94 188.946 93.36 188.882 92.72C185.874 98.736 180.946 101.744 174.098 101.744C168.082 101.744 163.282 99.92 159.698 96.272C156.178 92.624 154.418 86.832 154.418 78.896C154.418 74.48 155.026 70.672 156.242 67.472C157.522 64.272 159.186 61.872 161.234 60.272C165.01 57.328 169.201 55.856 173.809 55.856C177.009 55.856 179.729 56.624 181.969 58.16C183.825 59.504 185.394 60.976 186.674 62.576L186.098 57.2H208.37L206.738 94.544C205.906 111.824 197.778 120.464 182.354 120.464ZM179.954 68.816C176.178 68.816 174.29 72.336 174.29 79.376C174.29 80.656 174.385 81.904 174.577 83.12C174.833 84.336 175.442 85.552 176.402 86.768C177.426 87.984 178.865 88.592 180.721 88.592C182.577 88.592 183.954 87.696 184.85 85.904C185.81 84.112 186.29 81.936 186.29 79.376C186.29 72.336 184.178 68.816 179.954 68.816Z" fill="white"/>
    <path d="M249.967 55.856C254.447 55.856 258.287 57.744 261.487 61.52C264.751 65.296 266.383 70.224 266.383 76.304C266.383 82.32 265.647 91.12 264.175 102.704H247.375L245.455 81.2C244.815 74.352 242.959 70.928 239.887 70.928C236.239 70.928 234.287 74.384 234.031 81.296L233.359 102.704H215.695L213.679 57.2H235.375L234.991 65.36C235.311 64.72 236.047 63.728 237.199 62.384C238.351 61.04 239.471 59.952 240.559 59.12C243.375 56.944 246.511 55.856 249.967 55.856Z" fill="white"/>
    <path d="M301.747 91.664C305.651 91.664 308.979 90.48 311.731 88.112L317.683 95.312C316.659 96.528 315.443 97.68 314.035 98.768C312.627 99.792 310.387 100.88 307.315 102.032C304.243 103.12 300.883 103.664 297.235 103.664C290.003 103.664 283.923 101.584 278.995 97.424C274.131 93.2 271.699 87.024 271.699 78.896C271.699 73.776 272.947 69.424 275.443 65.84C279.987 59.184 287.027 55.856 296.563 55.856C303.859 55.856 309.427 57.328 313.267 60.272C317.107 63.152 319.027 67.152 319.027 72.272C319.027 76.24 317.427 79.472 314.227 81.968C311.091 84.4 306.483 85.616 300.403 85.616C297.651 85.616 295.059 85.36 292.627 84.848C292.947 87.152 293.939 88.88 295.603 90.032C297.331 91.12 299.379 91.664 301.747 91.664ZM298.003 75.728C300.179 75.728 301.875 75.344 303.091 74.576C304.371 73.744 305.011 72.688 305.011 71.408C305.011 70.128 304.499 69.072 303.475 68.24C302.515 67.408 301.171 66.992 299.443 66.992C297.715 66.992 296.083 67.76 294.547 69.296C293.075 70.832 292.339 72.656 292.339 74.768C294.003 75.408 295.891 75.728 298.003 75.728ZM298.387 41.552C299.859 39.184 301.619 38 303.667 38C305.779 38 307.443 38.608 308.659 39.824C309.875 40.976 310.483 42.576 310.483 44.624C310.483 46.608 309.331 48.272 307.027 49.616L301.459 52.88H291.475L298.387 41.552Z" fill="white"/>
    <path d="M343.696 87.056C341.52 85.648 338.736 84.944 335.344 84.944C331.952 84.944 329.168 85.648 326.992 87.056L324.4 44.528H346.288L343.696 87.056ZM329.872 91.856C331.088 90.512 332.912 89.84 335.344 89.84C337.776 89.84 339.6 90.512 340.816 91.856C342.032 93.136 342.64 94.768 342.64 96.752C342.64 98.736 342.032 100.4 340.816 101.744C339.6 103.024 337.776 103.664 335.344 103.664C332.912 103.664 331.088 103.024 329.872 101.744C328.656 100.4 328.048 98.736 328.048 96.752C328.048 94.768 328.656 93.136 329.872 91.856Z" fill="white"/>
</svg>
