<svg width="228" height="47" viewBox="0 0 228 47" fill="none" xmlns="http://www.w3.org/2000/svg">
    <path d="M29.7309 9.76L30.5309 17.36L24.0909 16.08L22.2909 34H14.4909L12.6909 16.08L6.21094 17.36L7.01094 9.76H29.7309Z" fill="white"/>
    <path d="M38.5869 34.4C36.5335 34.4 34.8402 33.8 33.5069 32.6C32.2002 31.4 31.5469 29.7067 31.5469 27.52C31.5469 25.3067 32.2935 23.7067 33.7869 22.72C35.2802 21.7067 37.0802 21.2 39.1869 21.2C41.2935 21.2 43.1202 21.5333 44.6669 22.2C44.3202 19.9867 42.9202 18.88 40.4669 18.88C39.3469 18.88 37.9602 19.1067 36.3069 19.56L35.3069 15.96C37.7069 14.9733 40.1469 14.48 42.6269 14.48C49.7735 14.48 53.3469 17.52 53.3469 23.6C53.3469 25.68 53.1069 28.56 52.6269 32.24L52.4269 34H45.8269L45.5869 31.8C43.7735 33.5333 41.4402 34.4 38.5869 34.4ZM42.1869 29.44C43.3869 29.44 44.4135 29.1067 45.2669 28.44L45.0269 25.8C44.3602 25.3467 43.6135 25.12 42.7869 25.12C41.9869 25.12 41.3202 25.32 40.7869 25.72C40.2802 26.12 40.0269 26.6133 40.0269 27.2C40.0269 27.7867 40.2269 28.3067 40.6269 28.76C41.0269 29.2133 41.5469 29.44 42.1869 29.44Z" fill="white"/>
    <path d="M70.8512 14.48C72.7179 14.48 74.3179 15.2667 75.6513 16.84C77.0113 18.4133 77.6913 20.4667 77.6913 23C77.6913 25.5067 77.3846 29.1733 76.7713 34H69.7713L68.9713 25.04C68.7046 22.1867 67.9312 20.76 66.6512 20.76C65.1312 20.76 64.3179 22.2 64.2113 25.08L63.9313 34H56.5713L55.7313 15.04H64.7713L64.6113 18.44C64.7446 18.1733 65.0512 17.76 65.5312 17.2C66.0113 16.64 66.4779 16.1867 66.9313 15.84C68.1046 14.9333 69.4112 14.48 70.8512 14.48Z" fill="white"/>
    <path d="M91.5462 41.4C90.2396 41.4 88.9596 41.2 87.7063 40.8C86.4529 40.4267 85.5329 40.0533 84.9463 39.68L84.0663 39.08L85.8262 35.48C86.9729 36.04 88.0396 36.32 89.0263 36.32C90.8396 36.32 92.1729 35.7467 93.0263 34.6C93.8796 33.4533 94.3063 32.1333 94.3063 30.64C94.3063 30.3733 94.2929 30.1067 94.2663 29.84C93.0129 32.3467 90.9596 33.6 88.1062 33.6C85.5996 33.6 83.5996 32.84 82.1062 31.32C80.6396 29.8 79.9062 27.3867 79.9062 24.08C79.9062 22.24 80.1596 20.6533 80.6663 19.32C81.1996 17.9867 81.8929 16.9867 82.7462 16.32C84.3196 15.0933 86.0663 14.48 87.9863 14.48C89.3196 14.48 90.4529 14.8 91.3863 15.44C92.1596 16 92.8129 16.6133 93.3463 17.28L93.1062 15.04H102.386L101.706 30.6C101.36 37.8 97.9729 41.4 91.5462 41.4ZM90.5462 19.88C88.9729 19.88 88.1862 21.3467 88.1862 24.28C88.1862 24.8133 88.2263 25.3333 88.3063 25.84C88.4129 26.3467 88.6663 26.8533 89.0663 27.36C89.4929 27.8667 90.0929 28.12 90.8662 28.12C91.6396 28.12 92.2129 27.7467 92.5863 27C92.9863 26.2533 93.1862 25.3467 93.1862 24.28C93.1862 21.3467 92.3062 19.88 90.5462 19.88Z" fill="white"/>
    <path d="M114.118 15.6L114.798 15.36L113.438 34H105.878L104.598 15.36C106.118 15.9733 107.732 16.28 109.438 16.28C111.172 16.28 112.732 16.0533 114.118 15.6ZM109.678 14.52C108.345 14.52 107.225 14.12 106.318 13.32C105.412 12.52 104.958 11.48 104.958 10.2C104.958 8.89334 105.398 7.85334 106.278 7.08C107.185 6.28 108.305 5.88 109.638 5.88C110.998 5.88 112.132 6.28 113.038 7.08C113.945 7.88 114.398 8.92001 114.398 10.2C114.398 11.48 113.945 12.52 113.038 13.32C112.132 14.12 111.012 14.52 109.678 14.52Z" fill="white"/>
    <path d="M119.216 34L116.816 9.76H129.416L127.616 27.8L134.856 27.4L132.576 34H119.216Z" fill="white"/>
    <path d="M147.304 34.4C144.291 34.4 141.757 33.5333 139.704 31.8C137.677 30.04 136.664 27.4667 136.664 24.08C136.664 21.9467 137.184 20.1333 138.224 18.64C140.117 15.8667 143.051 14.48 147.024 14.48C150.064 14.48 152.384 15.0933 153.984 16.32C155.584 17.52 156.384 19.1867 156.384 21.32C156.384 22.9733 155.717 24.32 154.384 25.36C153.077 26.3733 151.157 26.88 148.624 26.88C147.584 26.88 146.651 26.8 145.824 26.64L145.384 26.56C145.517 27.52 145.931 28.24 146.624 28.72C147.344 29.1733 148.197 29.4 149.184 29.4C150.811 29.4 152.197 28.9067 153.344 27.92L155.824 30.92C155.397 31.4267 154.891 31.9067 154.304 32.36C153.717 32.7867 152.784 33.24 151.504 33.72C150.224 34.1733 148.824 34.4 147.304 34.4ZM150.544 20.96C150.544 20.4267 150.331 19.9867 149.904 19.64C149.504 19.2933 148.944 19.12 148.224 19.12C147.504 19.12 146.824 19.44 146.184 20.08C145.571 20.72 145.264 21.48 145.264 22.36C145.851 22.6267 146.611 22.76 147.544 22.76C148.504 22.76 149.237 22.6 149.744 22.28C150.277 21.9333 150.544 21.4933 150.544 20.96Z" fill="white"/>
    <path d="M165.423 34.4C163.369 34.4 161.676 33.8 160.343 32.6C159.036 31.4 158.383 29.7067 158.383 27.52C158.383 25.3067 159.129 23.7067 160.623 22.72C162.116 21.7067 163.916 21.2 166.023 21.2C168.129 21.2 169.956 21.5333 171.503 22.2C171.156 19.9867 169.756 18.88 167.303 18.88C166.183 18.88 164.796 19.1067 163.143 19.56L162.143 15.96C164.543 14.9733 166.983 14.48 169.463 14.48C176.609 14.48 180.183 17.52 180.183 23.6C180.183 25.68 179.943 28.56 179.463 32.24L179.263 34H172.663L172.423 31.8C170.609 33.5333 168.276 34.4 165.423 34.4ZM169.023 29.44C170.223 29.44 171.249 29.1067 172.103 28.44L171.863 25.8C171.196 25.3467 170.449 25.12 169.623 25.12C168.823 25.12 168.156 25.32 167.623 25.72C167.116 26.12 166.863 26.6133 166.863 27.2C166.863 27.7867 167.063 28.3067 167.463 28.76C167.863 29.2133 168.383 29.44 169.023 29.44Z" fill="white"/>
    <path d="M191.447 17.64C192.861 15.5333 194.607 14.48 196.687 14.48C197.674 14.48 198.581 14.72 199.407 15.2L198.447 21.76C197.381 21.0133 196.181 20.64 194.847 20.64C193.567 20.64 192.701 21.1733 192.247 22.24C191.981 22.9067 191.807 23.5467 191.727 24.16L190.967 34H183.767L182.567 15.04H190.447L191.447 17.64Z" fill="white"/>
    <path d="M215.734 14.48C217.601 14.48 219.201 15.2667 220.534 16.84C221.894 18.4133 222.574 20.4667 222.574 23C222.574 25.5067 222.267 29.1733 221.654 34H214.654L213.854 25.04C213.587 22.1867 212.814 20.76 211.534 20.76C210.014 20.76 209.201 22.2 209.094 25.08L208.814 34H201.454L200.614 15.04H209.654L209.494 18.44C209.627 18.1733 209.934 17.76 210.414 17.2C210.894 16.64 211.361 16.1867 211.814 15.84C212.987 14.9333 214.294 14.48 215.734 14.48Z" fill="white"/>
    <path fill-rule="evenodd" clip-rule="evenodd" d="M34.2323 4.76L34.8665 10.7856C37.3863 9.92347 39.9793 9.48 42.6269 9.48C45.4011 9.48 48.1271 9.86548 50.5426 10.8925L50.5048 10.04H67.3186C68.4387 9.67109 69.6215 9.48 70.8513 9.48C74.0737 9.48 76.8224 10.8061 78.9323 13.0144C79.1649 12.7935 79.4099 12.5815 79.668 12.3799L79.6719 12.3768C82.0867 10.4941 84.9064 9.48 87.9863 9.48C89.2145 9.48 90.4443 9.65146 91.6273 10.04H99.2213L99.063 7.73472L100.161 8.17788C100.537 6.36296 101.444 4.67179 102.978 3.32418C104.893 1.63785 107.225 0.880005 109.638 0.880005C112.054 0.880005 114.411 1.62319 116.347 3.33081C116.847 3.77202 117.284 4.25058 117.66 4.76H134.939L133.79 16.2821C133.892 16.1204 133.998 15.9603 134.108 15.8017C137.113 11.4131 141.754 9.48 147.024 9.48C150.624 9.48 154.192 10.1887 157.005 12.336C157.1 12.407 157.192 12.4789 157.283 12.5518L160.242 11.3356C163.216 10.1126 166.301 9.48 169.463 9.48C172.204 9.48 174.898 9.85638 177.292 10.8562L177.241 10.04H193.257C194.313 9.67831 195.457 9.48 196.687 9.48C197.855 9.48 198.998 9.66494 200.09 10.04H212.201C213.322 9.67109 214.504 9.48 215.734 9.48C219.227 9.48 222.164 11.0383 224.333 13.5896C226.628 16.2551 227.574 19.5474 227.574 23C227.574 25.831 227.234 29.7502 226.614 34.6303L226.059 39H196.671L196.279 30.1571L195.596 39H169.149C167.951 39.2697 166.703 39.4 165.423 39.4C162.396 39.4 159.517 38.5048 157.163 36.4624C156.034 37.2653 154.626 37.8892 153.26 38.4016L153.217 38.4178L153.173 38.4331C151.297 39.0976 149.325 39.4 147.304 39.4C143.543 39.4 140.062 38.3683 137.126 36.1395L136.138 39H104.737C104.159 40.1296 103.438 41.1804 102.548 42.126C99.6478 45.209 95.7029 46.4 91.5463 46.4C89.7369 46.4 87.9605 46.1242 86.2342 45.5786C84.8676 45.1694 83.4312 44.6425 82.2619 43.8983L82.195 43.8558L77.6732 40.7727L78.5398 39H42.3136C41.1147 39.2697 39.8674 39.4 38.5869 39.4C35.4894 39.4 32.5462 38.4622 30.1621 36.3165L30.1434 36.2997L30.1249 36.2827C28.9103 35.1672 28.0446 33.872 27.4694 32.4743L26.8139 39H9.96802L8.26553 22.0508L0.528687 23.579L2.50964 4.76H34.2323ZM12.6909 16.08L14.4909 34H22.2909L24.0909 16.08L30.5309 17.36L29.7309 9.76H7.01094L6.21094 17.36L12.6909 16.08ZM33.7869 22.72C33.6426 22.8153 33.5054 22.9163 33.375 23.0231C32.9838 23.3436 32.6553 23.7157 32.3896 24.1395C31.8278 25.0356 31.5469 26.1624 31.5469 27.52C31.5469 29.7067 32.2002 31.4 33.5069 32.6C34.8402 33.8 36.5335 34.4 38.5869 34.4C39.2647 34.4 39.9131 34.3511 40.5322 34.2533C40.6287 34.2381 40.7244 34.2216 40.8195 34.204C41.293 34.1163 41.7488 33.9991 42.1869 33.8524C43.4724 33.422 44.6058 32.7378 45.5869 31.8L45.8269 34H52.4269L52.6269 32.24C53.1069 28.56 53.3469 25.68 53.3469 23.6C53.3469 20.6411 52.5006 18.4022 50.808 16.8833C49.2973 15.5276 47.1125 14.7455 44.2534 14.5369C43.7335 14.499 43.1914 14.48 42.6269 14.48C41.9035 14.48 41.1835 14.522 40.4669 14.6059C40.3551 14.619 40.2434 14.6331 40.1318 14.6483C40.062 14.6577 39.9923 14.6676 39.9226 14.6779C38.402 14.9017 36.8967 15.3155 35.4069 15.9192C35.3774 15.9311 35.3479 15.9431 35.3185 15.9552C35.3146 15.9568 35.3107 15.9584 35.3069 15.96L36.3069 19.56C36.4532 19.5199 36.5974 19.4815 36.7396 19.445C37.639 19.2136 38.4547 19.0533 39.1869 18.964C39.6465 18.908 40.0732 18.88 40.4669 18.88C41.3118 18.88 42.0318 19.0113 42.6269 19.2738C42.7689 19.3364 42.9037 19.4065 43.0314 19.4841C43.3407 19.6719 43.6082 19.9035 43.8341 20.1788C44.2594 20.6973 44.537 21.371 44.6669 22.2C44.0805 21.9472 43.4538 21.7424 42.7869 21.5855C42.0612 21.4147 41.2879 21.3007 40.4669 21.2434C40.0524 21.2145 39.6257 21.2 39.1869 21.2C38.9705 21.2 38.7574 21.2053 38.5475 21.216C37.9459 21.2467 37.3708 21.3212 36.8223 21.4397C36.5449 21.4996 36.2743 21.5707 36.0105 21.6531C35.2061 21.9043 34.4649 22.2599 33.7869 22.72ZM40.0897 26.7173C40.0478 26.8705 40.0269 27.0314 40.0269 27.2C40.0269 27.5312 40.0906 27.8411 40.2181 28.1297C40.3164 28.3525 40.4527 28.5626 40.6269 28.76C40.6555 28.7924 40.6848 28.8237 40.7146 28.8539C40.7684 28.9081 40.8242 28.9586 40.882 29.0054C41.2402 29.2951 41.6752 29.44 42.1869 29.44C42.3129 29.44 42.437 29.4363 42.5592 29.429C42.6358 29.4244 42.7117 29.4183 42.7869 29.4108C42.9415 29.3954 43.093 29.3738 43.2412 29.3461C43.3184 29.3317 43.3948 29.3156 43.4703 29.2979C43.5099 29.2885 43.5492 29.2788 43.5884 29.2686C43.9194 29.1821 44.2334 29.0628 44.5303 28.9109C44.7887 28.7787 45.0342 28.6217 45.2669 28.44L45.0269 25.8C44.9478 25.7463 44.8677 25.6957 44.7864 25.6483C44.6474 25.5673 44.505 25.4956 44.3594 25.4332C44.0511 25.3011 43.7279 25.2108 43.3901 25.1622C43.194 25.1341 42.9929 25.12 42.7869 25.12C42.749 25.12 42.7115 25.1205 42.6742 25.1213C42.5056 25.1254 42.3432 25.1386 42.1869 25.161C41.6475 25.2382 41.1808 25.4246 40.7869 25.72C40.5899 25.8755 40.4313 26.0451 40.3109 26.2287C40.3073 26.2342 40.3037 26.2397 40.3002 26.2453C40.2053 26.3935 40.1351 26.5509 40.0897 26.7173ZM56.5713 34H63.9313L64.2113 25.08C64.2151 24.9748 64.22 24.8715 64.2258 24.7702C64.3783 22.0967 65.1868 20.76 66.6512 20.76C67.884 20.76 68.6469 22.0834 68.9397 24.7301C68.9509 24.8315 68.9614 24.9348 68.9713 25.04L69.7713 34H76.7713C76.8268 33.5631 76.8798 33.1358 76.9303 32.7179C77.3622 29.1431 77.6103 26.2638 77.6745 24.08C77.6857 23.6988 77.6913 23.3388 77.6913 23C77.6913 20.8788 77.2145 19.0942 76.261 17.646C76.2344 17.6056 76.2074 17.5654 76.1801 17.5255C76.1423 17.4705 76.1039 17.4159 76.0647 17.3619C75.9347 17.1824 75.7969 17.0085 75.6513 16.84C74.3179 15.2667 72.7179 14.48 70.8512 14.48C70.4923 14.48 70.1416 14.5082 69.7992 14.5645C69.1498 14.6714 68.5302 14.8796 67.9404 15.1891C67.6263 15.354 67.3207 15.5475 67.0236 15.7698C66.9927 15.7929 66.9619 15.8163 66.9313 15.84C66.8385 15.9109 66.7452 15.9864 66.6513 16.0662C66.2864 16.3767 65.913 16.7546 65.5312 17.2C65.1906 17.5974 64.9373 17.9209 64.7713 18.1706C64.7033 18.2728 64.65 18.3626 64.6113 18.44L64.7713 15.04H55.7313L56.5713 34ZM81.7149 17.3908C81.315 17.929 80.9654 18.572 80.6663 19.32C80.2615 20.385 80.0185 21.6117 79.937 23C79.9165 23.3497 79.9062 23.7097 79.9062 24.08C79.9062 27.3867 80.6396 29.8 82.1062 31.32C82.1118 31.3256 82.1173 31.3312 82.1229 31.3369C82.1592 31.3737 82.1959 31.41 82.2329 31.4459C83.4337 32.6117 84.9499 33.3043 86.7816 33.5237C87.2062 33.5746 87.6478 33.6 88.1062 33.6C88.4228 33.6 88.7294 33.5846 89.0263 33.5537C89.6855 33.4852 90.2962 33.3407 90.8583 33.12C90.861 33.119 90.8636 33.1179 90.8663 33.1169C90.9025 33.1026 90.9386 33.088 90.9744 33.0731C92.1307 32.5918 93.0765 31.7807 93.8119 30.64C93.9735 30.3893 94.125 30.1226 94.2663 29.84C94.2929 30.1067 94.3063 30.3733 94.3063 30.64C94.3063 31.2282 94.2401 31.7895 94.1077 32.3239C93.904 33.1463 93.5435 33.905 93.0263 34.6C92.3429 35.5182 91.3518 36.0688 90.0528 36.2517C89.7627 36.2926 89.4571 36.3151 89.1363 36.3193C89.1046 36.3197 89.0727 36.3199 89.0407 36.32C89.0359 36.32 89.0311 36.32 89.0263 36.32C88.7269 36.32 88.4203 36.2942 88.1063 36.2427C87.8738 36.2046 87.6373 36.1523 87.3968 36.0859C87.3509 36.0732 87.3048 36.0601 87.2586 36.0463C86.9638 35.9589 86.663 35.8506 86.3563 35.7213C86.1815 35.6477 86.0049 35.5672 85.8262 35.48L84.0663 39.08L84.0676 39.081L84.9463 39.68C85.4812 40.0204 86.2932 40.3608 87.3824 40.7012C87.4877 40.7341 87.5957 40.7671 87.7063 40.8C88.0229 40.9011 88.3413 40.9894 88.6614 41.0649C88.7828 41.0935 88.9044 41.1204 89.0263 41.1453C89.3124 41.2039 89.5999 41.2525 89.8887 41.2908C90.4364 41.3636 90.9889 41.4 91.5462 41.4C96.4454 41.4 99.5779 39.308 100.944 35.1238C101.028 34.8649 101.106 34.5979 101.177 34.3228C101.464 33.2125 101.64 31.9716 101.706 30.6L102.386 15.04H93.1062L93.3463 17.28C93.2688 17.1832 93.1888 17.0875 93.1063 16.9929C92.6206 16.4363 92.0473 15.9187 91.3863 15.44C91.2917 15.3752 91.1951 15.3136 91.0964 15.2553C90.9196 15.1509 90.7362 15.0571 90.5463 14.9737C90.474 14.942 90.4008 14.9119 90.3267 14.8833C89.639 14.6177 88.8693 14.4833 88.0176 14.4801C88.0072 14.48 87.9967 14.48 87.9863 14.48C86.0663 14.48 84.3196 15.0933 82.7462 16.32C82.3716 16.6127 82.0278 16.9696 81.7149 17.3908ZM89.6619 27.8466C89.9911 28.0236 90.3791 28.1146 90.8258 28.1198C90.8392 28.1199 90.8527 28.12 90.8662 28.12C91.6396 28.12 92.2129 27.7467 92.5863 27C92.8828 26.4465 93.0694 25.8051 93.1461 25.0758C93.1474 25.0634 93.1487 25.0509 93.1499 25.0385C93.1572 24.9653 93.1634 24.8913 93.1685 24.8164C93.1709 24.7805 93.1731 24.7445 93.1751 24.7082C93.1825 24.5685 93.1862 24.4257 93.1862 24.28C93.1862 23.9669 93.1762 23.6705 93.1562 23.3908C93.105 22.6778 92.9888 22.0734 92.8073 21.5776C92.3931 20.4459 91.6394 19.88 90.5462 19.88C90.3592 19.88 90.1833 19.9007 90.0185 19.9422C89.7656 20.0058 89.5388 20.1182 89.3382 20.2795C88.6728 20.8146 88.2957 21.8872 88.2068 23.4972C88.1931 23.7454 88.1862 24.0063 88.1862 24.28C88.1862 24.3948 88.1881 24.509 88.1918 24.6225C88.1921 24.6304 88.1923 24.6384 88.1926 24.6463C88.1945 24.6999 88.1968 24.7533 88.1995 24.8066C88.2172 25.157 88.2528 25.5015 88.3063 25.84C88.4129 26.3467 88.6663 26.8533 89.0663 27.36C89.237 27.5628 89.4356 27.725 89.6619 27.8466ZM91.1953 24.8015L91.8742 23.4438L91.7766 23.3219C91.3592 23.1465 91.0241 23.12 90.8663 23.12C90.7678 23.12 90.6604 23.1258 90.5463 23.139C90.1365 23.1865 89.6388 23.3303 89.1479 23.65C88.9475 23.7805 88.7802 23.9195 88.6414 24.056C88.7182 24.1313 88.804 24.2067 88.8991 24.28C89.0106 24.366 89.135 24.4491 89.273 24.5258C89.8005 24.8188 90.2781 24.88 90.5463 24.88C90.6435 24.88 90.751 24.8741 90.8663 24.8602C90.9702 24.8476 91.0804 24.8286 91.1953 24.8015ZM105.878 34H113.438L114.798 15.36L114.118 15.6C113.576 15.7773 113.007 15.92 112.412 16.0279C111.567 16.181 110.669 16.2644 109.718 16.278C109.705 16.2782 109.692 16.2784 109.678 16.2785C109.677 16.2786 109.675 16.2786 109.673 16.2786C109.595 16.2795 109.517 16.28 109.438 16.28C108.724 16.28 108.026 16.2262 107.344 16.1187C106.397 15.9695 105.482 15.7165 104.598 15.36L105.878 34ZM107.434 14.0539C108.035 14.3344 108.703 14.4883 109.438 14.5156C109.518 14.5185 109.598 14.52 109.678 14.52C110.628 14.52 111.469 14.3172 112.202 13.9115C112.499 13.7475 112.777 13.5503 113.038 13.32C113.11 13.2567 113.179 13.1919 113.245 13.1256C113.261 13.1093 113.277 13.0929 113.293 13.0764C113.478 12.8853 113.639 12.682 113.777 12.4665C114.191 11.8206 114.398 11.0651 114.398 10.2C114.398 10.1996 114.398 10.1993 114.398 10.1989C114.398 10.1318 114.397 10.0654 114.395 9.9997C114.349 8.81109 113.897 7.83786 113.038 7.08C112.565 6.66261 112.031 6.35411 111.434 6.15449C110.887 5.9715 110.289 5.88 109.638 5.88C108.305 5.88 107.185 6.28 106.278 7.08C105.435 7.8215 104.995 8.80817 104.961 10.04C104.96 10.0645 104.959 10.0891 104.959 10.1138C104.959 10.1424 104.958 10.1711 104.958 10.2C104.958 11.1431 105.205 11.9558 105.697 12.6383C105.873 12.8822 106.08 13.1094 106.318 13.32C106.66 13.6214 107.032 13.8661 107.434 14.0539ZM116.816 9.76H129.416L127.616 27.8L134.856 27.4L132.576 34H119.216L116.816 9.76ZM136.798 22.285C136.709 22.8558 136.664 23.4541 136.664 24.08C136.664 25.6426 136.88 27.032 137.311 28.2483C137.682 29.2937 138.212 30.2111 138.902 31.0007C139.149 31.2835 139.416 31.55 139.704 31.8C141.757 33.5333 144.291 34.4 147.304 34.4C147.646 34.4 147.981 34.3886 148.311 34.3657C148.607 34.3451 148.898 34.3153 149.184 34.2762C149.997 34.1653 150.77 33.9799 151.504 33.72C151.542 33.7058 151.579 33.6917 151.616 33.6776C152.353 33.3978 152.971 33.1271 153.471 32.8656C153.783 32.7019 154.049 32.5418 154.269 32.3852C154.281 32.3768 154.293 32.3684 154.304 32.36C154.891 31.9067 155.397 31.4267 155.824 30.92L153.344 27.92C153.28 27.9753 153.215 28.029 153.149 28.0812C153.028 28.1775 152.904 28.2686 152.777 28.3543C152.463 28.5678 152.132 28.7485 151.785 28.8966C151.746 28.9135 151.706 28.93 151.666 28.946C151.134 29.1596 150.565 29.2979 149.96 29.3607C149.931 29.3637 149.902 29.3666 149.873 29.3693C149.648 29.3898 149.419 29.4 149.184 29.4C148.992 29.4 148.806 29.3914 148.624 29.3743C148.532 29.3657 148.442 29.3548 148.352 29.3418C147.71 29.248 147.133 29.0407 146.624 28.72C146.218 28.4391 145.908 28.076 145.695 27.6308C145.682 27.6049 145.67 27.5787 145.658 27.5523C145.656 27.5467 145.653 27.5411 145.651 27.5355C145.523 27.2438 145.434 26.9187 145.384 26.56L145.824 26.64C146.354 26.7425 146.927 26.8122 147.544 26.849C147.627 26.8539 147.71 26.8583 147.794 26.862C147.832 26.8637 147.869 26.8653 147.907 26.8667C148.14 26.8756 148.379 26.88 148.624 26.88C148.814 26.88 149.001 26.8772 149.184 26.8714C150.276 26.8374 151.246 26.702 152.092 26.4652C152.176 26.4417 152.259 26.4171 152.341 26.3916C152.362 26.385 152.383 26.3784 152.404 26.3717C152.55 26.3246 152.693 26.2743 152.831 26.2207C153.056 26.1337 153.271 26.038 153.475 25.9338C153.805 25.7651 154.108 25.5738 154.384 25.36C155.14 24.7705 155.681 24.0825 156.009 23.2959C156.259 22.6948 156.384 22.0362 156.384 21.32C156.384 20.8131 156.339 20.3325 156.249 19.8783C155.959 18.421 155.204 17.2349 153.984 16.32C153.659 16.0712 153.305 15.8476 152.921 15.6492C151.67 15.0027 150.105 14.6243 148.224 14.514C147.837 14.4913 147.437 14.48 147.024 14.48C146.606 14.48 146.199 14.4954 145.803 14.5262C142.444 14.7875 139.918 16.1588 138.224 18.64C137.489 19.6952 137.014 20.9103 136.798 22.285ZM145.378 21.4769C145.302 21.7564 145.264 22.0508 145.264 22.36C145.48 22.4584 145.721 22.5386 145.984 22.6007C146.022 22.6096 146.06 22.6182 146.099 22.6263C146.24 22.6559 146.387 22.6806 146.54 22.7004C146.555 22.7023 146.57 22.7042 146.585 22.706C146.782 22.7299 146.988 22.7458 147.205 22.7539C147.26 22.7559 147.315 22.7574 147.37 22.7584C147.428 22.7595 147.485 22.76 147.544 22.76C147.785 22.76 148.012 22.7499 148.224 22.7298C148.364 22.7165 148.497 22.6989 148.624 22.677C148.669 22.6693 148.713 22.661 148.756 22.6522C148.787 22.6459 148.818 22.6394 148.848 22.6325C149.136 22.567 149.389 22.4761 149.606 22.36C149.654 22.3346 149.7 22.3079 149.744 22.28C149.986 22.1226 150.173 21.946 150.306 21.7501C150.465 21.5146 150.544 21.2512 150.544 20.96C150.544 20.5506 150.418 20.1961 150.167 19.8967C150.091 19.8061 150.003 19.7205 149.904 19.64C149.504 19.2933 148.944 19.12 148.224 19.12C148.073 19.12 147.923 19.1342 147.775 19.1625C147.758 19.1657 147.741 19.1691 147.724 19.1728C147.664 19.1857 147.604 19.201 147.544 19.2186C147.368 19.2706 147.195 19.3431 147.024 19.4361C146.998 19.4504 146.972 19.4651 146.946 19.4802C146.757 19.5909 146.57 19.727 146.387 19.8886L146.265 20.1577L146.184 20.08L146.264 20.16L145.644 21.5252L145.594 21.5162C145.562 21.3389 145.547 21.1695 145.545 21.0122C145.477 21.1622 145.421 21.3171 145.378 21.4769ZM159.226 24.1395C158.846 24.7456 158.594 25.4573 158.471 26.2745C158.412 26.6655 158.383 27.0807 158.383 27.52C158.383 27.8425 158.397 28.1542 158.425 28.4552C158.435 28.5523 158.445 28.6483 158.457 28.7431C158.663 30.3484 159.291 31.634 160.343 32.6C160.458 32.7035 160.576 32.8025 160.696 32.8971C161.971 33.899 163.547 34.4 165.423 34.4C166.101 34.4 166.749 34.3511 167.368 34.2533C167.465 34.2381 167.56 34.2216 167.655 34.204C168.129 34.1163 168.585 33.999 169.023 33.8524C170.308 33.4219 171.442 32.7378 172.423 31.8L172.663 34H179.263L179.463 32.24C179.943 28.56 180.183 25.68 180.183 23.6C180.183 20.6597 179.347 18.4303 177.676 16.9119C176.164 15.5386 173.968 14.747 171.089 14.5369C170.569 14.499 170.027 14.48 169.463 14.48C168.739 14.48 168.019 14.522 167.303 14.6059C167.191 14.619 167.079 14.6331 166.968 14.6483C166.898 14.6577 166.828 14.6676 166.759 14.6779C165.208 14.9061 163.673 15.3319 162.154 15.9552C162.151 15.9568 162.147 15.9584 162.143 15.96L163.143 19.56C163.289 19.5199 163.433 19.4815 163.576 19.445C164.475 19.2136 165.291 19.0533 166.023 18.964C166.482 18.908 166.909 18.88 167.303 18.88C168.148 18.88 168.868 19.0113 169.463 19.2738C169.605 19.3364 169.74 19.4065 169.867 19.4841C170.177 19.6719 170.444 19.9035 170.67 20.1788C171.095 20.6973 171.373 21.371 171.503 22.2C170.916 21.9472 170.29 21.7424 169.623 21.5855C168.897 21.4147 168.124 21.3007 167.303 21.2434C166.888 21.2145 166.462 21.2 166.023 21.2C165.806 21.2 165.593 21.2054 165.383 21.216C164.782 21.2467 164.207 21.3212 163.658 21.4397C162.825 21.6198 162.052 21.9013 161.341 22.2842C161.094 22.4172 160.855 22.5625 160.623 22.72C160.045 23.1015 159.58 23.5746 159.226 24.1395ZM166.926 26.7173C166.884 26.8705 166.863 27.0314 166.863 27.2C166.863 27.5312 166.927 27.8411 167.054 28.1298C167.152 28.3525 167.289 28.5626 167.463 28.76C167.491 28.7924 167.521 28.8237 167.551 28.8539C167.604 28.9081 167.66 28.9586 167.718 29.0054C168.076 29.2951 168.511 29.44 169.023 29.44C169.149 29.44 169.273 29.4363 169.395 29.429C169.472 29.4244 169.548 29.4183 169.623 29.4108C169.777 29.3954 169.929 29.3738 170.077 29.3461C170.154 29.3317 170.231 29.3156 170.306 29.2979C170.346 29.2885 170.385 29.2788 170.424 29.2686C170.755 29.1821 171.069 29.0628 171.366 28.9109C171.625 28.7787 171.87 28.6217 172.103 28.44L171.863 25.8C171.784 25.7463 171.704 25.6957 171.622 25.6483C171.483 25.5673 171.341 25.4956 171.195 25.4332C170.887 25.3011 170.564 25.2108 170.226 25.1622C170.03 25.1341 169.829 25.12 169.623 25.12C169.585 25.12 169.547 25.1205 169.51 25.1213C169.342 25.1254 169.179 25.1386 169.023 25.161C168.483 25.2382 168.017 25.4246 167.623 25.72C167.426 25.8755 167.267 26.0451 167.147 26.2287C167.143 26.2342 167.14 26.2398 167.136 26.2453C167.041 26.3935 166.971 26.5509 166.926 26.7173ZM183.767 34H190.967L191.727 24.16C191.807 23.5467 191.981 22.9067 192.247 22.24C192.521 21.5957 192.946 21.146 193.521 20.8909C193.898 20.7236 194.34 20.64 194.847 20.64C195.047 20.64 195.244 20.6484 195.439 20.6652C195.581 20.6776 195.722 20.6944 195.861 20.7158C196.796 20.8595 197.658 21.2076 198.447 21.76L199.407 15.2C199.348 15.1659 199.289 15.133 199.23 15.1013C198.451 14.6871 197.604 14.48 196.687 14.48C196.323 14.48 195.97 14.5122 195.626 14.5767C195.614 14.5791 195.601 14.5814 195.589 14.5838C195.535 14.5943 195.482 14.6056 195.428 14.6177C195.07 14.6989 194.723 14.8159 194.388 14.9688C193.918 15.1829 193.471 15.4673 193.045 15.8221C192.472 16.3003 191.939 16.9062 191.447 17.64L190.447 15.04H182.567L183.767 34ZM201.454 34H208.814L209.094 25.08C209.098 24.9748 209.103 24.8715 209.109 24.7702C209.261 22.0967 210.07 20.76 211.534 20.76C212.767 20.76 213.53 22.0834 213.823 24.7301C213.834 24.8315 213.844 24.9348 213.854 25.04L214.654 34H221.654C222.267 29.1733 222.574 25.5067 222.574 23C222.574 20.4667 221.894 18.4133 220.534 16.84C219.201 15.2667 217.601 14.48 215.734 14.48C215.375 14.48 215.024 14.5082 214.682 14.5645C214.033 14.6714 213.413 14.8796 212.823 15.1891C212.509 15.354 212.204 15.5475 211.906 15.7698C211.876 15.7929 211.845 15.8163 211.814 15.84C211.721 15.9109 211.628 15.9864 211.534 16.0662C211.169 16.3767 210.796 16.7546 210.414 17.2C210.073 17.5974 209.82 17.9209 209.654 18.1706C209.586 18.2728 209.533 18.3626 209.494 18.44L209.654 15.04H200.614L201.454 34Z" fill="#662E9B"/>
</svg>
