<svg width="363" height="246" viewBox="0 0 363 246" fill="none" xmlns="http://www.w3.org/2000/svg">
    <path d="M111.368 76.912C114.312 76.912 116.648 76.016 118.376 74.224C120.104 72.432 120.968 70.256 120.968 67.696C120.968 65.072 120.136 63.12 118.472 61.84C116.872 60.496 114.792 59.824 112.232 59.824H108.392L106.76 76.912H111.368ZM117.416 89.2H105.512L103.88 106H85.1599L79.3999 47.824H122.216C128.936 47.824 134.376 49.552 138.536 53.008C142.76 56.4 144.872 61.296 144.872 67.696C144.872 71.6 144.072 74.992 142.472 77.872C140.936 80.752 138.824 82.992 136.136 84.592C130.952 87.664 124.712 89.2 117.416 89.2Z" fill="white"/>
    <path d="M171.072 61.84L172.704 61.264L169.44 106H151.296L148.224 61.264C151.872 62.736 155.744 63.472 159.84 63.472C164 63.472 167.744 62.928 171.072 61.84ZM160.416 59.248C157.216 59.248 154.528 58.288 152.352 56.368C150.176 54.448 149.088 51.952 149.088 48.88C149.088 45.744 150.144 43.248 152.256 41.392C154.432 39.472 157.12 38.512 160.32 38.512C163.584 38.512 166.304 39.472 168.48 41.392C170.656 43.312 171.744 45.808 171.744 48.88C171.744 51.952 170.656 54.448 168.48 56.368C166.304 58.288 163.616 59.248 160.416 59.248Z" fill="white"/>
    <path d="M212.777 106.96C209.193 106.96 206.217 106.128 203.849 104.464C201.737 102.928 200.105 101.36 198.953 99.76L197.705 122.416H181.289L178.505 60.496H199.145L200.201 65.872C200.521 65.36 201.001 64.752 201.641 64.048C202.345 63.28 203.785 62.288 205.961 61.072C208.201 59.792 210.505 59.152 212.873 59.152C215.241 59.152 217.449 59.504 219.497 60.208C221.609 60.912 223.657 62.064 225.641 63.664C227.689 65.2 229.321 67.568 230.537 70.768C231.817 73.968 232.457 77.776 232.457 82.192C232.457 90.256 230.633 96.4 226.985 100.624C223.337 104.848 218.601 106.96 212.777 106.96ZM206.921 72.112C202.697 72.112 200.585 75.952 200.585 83.632C200.585 86.32 201.033 88.688 201.929 90.736C202.889 92.784 204.297 93.808 206.153 93.808C208.009 93.808 209.417 93.136 210.377 91.792C211.849 89.744 212.585 87.024 212.585 83.632C212.585 75.952 210.697 72.112 206.921 72.112Z" fill="white"/>
    <path d="M262.811 106.96C255.579 106.96 249.499 104.88 244.571 100.72C239.707 96.496 237.275 90.32 237.275 82.192C237.275 77.072 238.523 72.72 241.019 69.136C245.563 62.48 252.603 59.152 262.139 59.152C269.435 59.152 275.003 60.624 278.843 63.568C282.683 66.448 284.603 70.448 284.603 75.568C284.603 79.536 283.003 82.768 279.803 85.264C276.667 87.696 272.059 88.912 265.979 88.912C263.483 88.912 261.243 88.72 259.259 88.336L258.203 88.144C258.523 90.448 259.515 92.176 261.179 93.328C262.907 94.416 264.955 94.96 267.323 94.96C271.227 94.96 274.555 93.776 277.307 91.408L283.259 98.608C282.235 99.824 281.019 100.976 279.611 102.064C278.203 103.088 275.963 104.176 272.891 105.328C269.819 106.416 266.459 106.96 262.811 106.96ZM270.587 74.704C270.587 73.424 270.075 72.368 269.051 71.536C268.091 70.704 266.747 70.288 265.019 70.288C263.291 70.288 261.659 71.056 260.123 72.592C258.651 74.128 257.915 75.952 257.915 78.064C259.323 78.704 261.147 79.024 263.387 79.024C265.691 79.024 267.451 78.64 268.667 77.872C269.947 77.04 270.587 75.984 270.587 74.704Z" fill="white"/>
    <path d="M97.8462 176.28V198.84C97.0142 199.672 95.6062 200.664 93.6222 201.816C91.6382 202.968 89.6542 203.928 87.6702 204.696C82.4862 206.872 76.7262 207.96 70.3902 207.96C59.8302 207.96 51.8302 205.4 46.3902 200.28C41.0142 195.096 38.3262 187.608 38.3262 177.816C38.3262 168.024 41.0782 160.536 46.5822 155.352C52.1502 150.104 59.8622 147.48 69.7182 147.48C77.3982 147.48 84.4062 149.08 90.7422 152.28C92.2142 152.984 93.3022 153.592 94.0062 154.104L94.9662 154.872L90.7422 163.416C87.7342 162.136 84.1502 161.496 79.9902 161.496C69.3662 161.496 64.0542 167 64.0542 178.008C64.0542 183.704 65.2702 188.152 67.7022 191.352C70.1342 194.552 73.3342 196.152 77.3022 196.152C78.9022 196.152 80.4702 195.832 82.0062 195.192L79.7982 185.976H72.6942L74.6142 176.28H97.8462Z" fill="white"/>
    <path d="M119.077 207.96C114.149 207.96 110.085 206.52 106.885 203.64C103.749 200.76 102.181 196.696 102.181 191.448C102.181 186.136 103.973 182.296 107.557 179.928C111.141 177.496 115.461 176.28 120.517 176.28C125.573 176.28 129.957 177.08 133.669 178.68C132.837 173.368 129.477 170.712 123.589 170.712C120.901 170.712 117.573 171.256 113.605 172.344L111.205 163.704C116.965 161.336 122.821 160.152 128.773 160.152C145.925 160.152 154.501 167.448 154.501 182.04C154.501 187.032 153.925 193.944 152.773 202.776L152.293 207H136.453L135.877 201.72C131.525 205.88 125.925 207.96 119.077 207.96ZM127.717 196.056C130.597 196.056 133.061 195.256 135.109 193.656L134.533 187.32C132.933 186.232 131.141 185.688 129.157 185.688C127.237 185.688 125.637 186.168 124.357 187.128C123.141 188.088 122.533 189.272 122.533 190.68C122.533 192.088 123.013 193.336 123.973 194.424C124.933 195.512 126.181 196.056 127.717 196.056Z" fill="white"/>
    <path d="M229.44 160.152C234.624 160.152 238.464 162.2 240.96 166.296C243.456 170.392 244.704 175.32 244.704 181.08C244.704 186.776 243.968 195.416 242.496 207H225.696L223.584 184.728C223.2 180.888 222.688 178.328 222.048 177.048C221.408 175.768 220.32 175.128 218.784 175.128C215.136 175.128 213.088 178.36 212.64 184.824L211.008 207H193.92L191.808 184.728C191.424 180.888 190.912 178.328 190.272 177.048C189.632 175.768 188.544 175.128 187.008 175.128C183.232 175.128 181.184 178.36 180.864 184.824L179.904 207H162.24L160.224 161.496H181.92L181.536 170.616C181.664 170.36 181.824 170.008 182.016 169.56C182.272 169.048 182.848 168.184 183.744 166.968C184.704 165.752 185.76 164.696 186.912 163.8C188.064 162.904 189.632 162.072 191.616 161.304C193.664 160.536 195.84 160.152 198.144 160.152C201.856 160.152 204.864 161.336 207.168 163.704C209.536 166.072 211.072 168.696 211.776 171.576C212.736 169.976 213.568 168.696 214.272 167.736C214.976 166.776 216.032 165.624 217.44 164.28C220.32 161.528 224.32 160.152 229.44 160.152Z" fill="white"/>
    <path d="M275.561 207.96C268.329 207.96 262.249 205.88 257.321 201.72C252.457 197.496 250.025 191.32 250.025 183.192C250.025 178.072 251.273 173.72 253.769 170.136C258.313 163.48 265.353 160.152 274.889 160.152C282.185 160.152 287.753 161.624 291.593 164.568C295.433 167.448 297.353 171.448 297.353 176.568C297.353 180.536 295.753 183.768 292.553 186.264C289.417 188.696 284.809 189.912 278.729 189.912C276.233 189.912 273.993 189.72 272.009 189.336L270.953 189.144C271.273 191.448 272.265 193.176 273.929 194.328C275.657 195.416 277.705 195.96 280.073 195.96C283.977 195.96 287.305 194.776 290.057 192.408L296.009 199.608C294.985 200.824 293.769 201.976 292.361 203.064C290.953 204.088 288.713 205.176 285.641 206.328C282.569 207.416 279.209 207.96 275.561 207.96ZM283.337 175.704C283.337 174.424 282.825 173.368 281.801 172.536C280.841 171.704 279.497 171.288 277.769 171.288C276.041 171.288 274.409 172.056 272.873 173.592C271.401 175.128 270.665 176.952 270.665 179.064C272.073 179.704 273.897 180.024 276.137 180.024C278.441 180.024 280.201 179.64 281.417 178.872C282.697 178.04 283.337 176.984 283.337 175.704Z" fill="white"/>
    <path d="M322.022 191.352C319.846 189.944 317.062 189.24 313.67 189.24C310.278 189.24 307.494 189.944 305.318 191.352L302.726 148.824H324.614L322.022 191.352ZM308.198 196.152C309.414 194.808 311.238 194.136 313.67 194.136C316.102 194.136 317.926 194.808 319.142 196.152C320.358 197.432 320.966 199.064 320.966 201.048C320.966 203.032 320.358 204.696 319.142 206.04C317.926 207.32 316.102 207.96 313.67 207.96C311.238 207.96 309.414 207.32 308.198 206.04C306.982 204.696 306.374 203.032 306.374 201.048C306.374 199.064 306.982 197.432 308.198 196.152Z" fill="white"/>
    <path fill-rule="evenodd" clip-rule="evenodd" d="M116.421 60.5908C115.227 60.0881 113.857 59.8326 112.31 59.8242C112.284 59.8241 112.258 59.824 112.232 59.824H108.392L106.76 76.912H111.368C111.662 76.912 111.95 76.9031 112.232 76.8852C114.28 76.7553 116.008 76.1536 117.416 75.0802C117.715 74.8521 118 74.6027 118.27 74.3321C118.306 74.2964 118.341 74.2604 118.376 74.224C119.037 73.5387 119.571 72.7972 119.979 71.9996C120.638 70.7115 120.968 69.277 120.968 67.696C120.968 67.2299 120.942 66.7849 120.889 66.3612C120.867 66.1827 120.84 66.008 120.809 65.837C120.624 64.8344 120.28 63.9613 119.775 63.2176C119.554 62.8922 119.303 62.5915 119.021 62.3157C118.849 62.148 118.666 61.9894 118.472 61.84C118.141 61.5616 117.789 61.3121 117.416 61.0914C117.099 60.9037 116.767 60.7368 116.421 60.5908ZM140.162 81.2421C140.459 80.9029 140.743 80.55 141.015 80.1835C141.122 80.0384 141.228 79.891 141.332 79.7416C141.742 79.1517 142.122 78.5285 142.472 77.872C143.605 75.8327 144.337 73.5366 144.667 70.9839C144.719 70.584 144.761 70.1778 144.793 69.7653C144.834 69.2377 144.859 68.6999 144.868 68.1517C144.871 68.0006 144.872 67.8487 144.872 67.696C144.872 66.7645 144.827 65.8649 144.738 64.9972C144.677 64.4074 144.595 63.8323 144.493 63.2719C144.417 62.852 144.329 62.4405 144.229 62.0371C144.188 61.8724 144.145 61.7091 144.101 61.5471C143.867 60.6983 143.58 59.8874 143.24 59.1143C142.623 57.7117 141.831 56.4336 140.864 55.2801C140.177 54.4597 139.401 53.7024 138.536 53.008C137.1 51.8151 135.512 50.8281 133.771 50.047C132.744 49.5864 131.665 49.1974 130.533 48.88C130.215 48.7911 129.894 48.7078 129.568 48.6301C129.305 48.5672 129.039 48.508 128.77 48.4525C126.74 48.0335 124.556 47.824 122.216 47.824H79.3999L85.1599 106H103.88L105.512 89.2H117.416C118.874 89.2 120.29 89.1387 121.664 89.0159C124.713 88.7436 127.554 88.1691 130.187 87.2925C130.617 87.1495 131.04 86.9986 131.459 86.8396C131.904 86.6703 132.343 86.492 132.776 86.3046C133.941 85.7997 135.061 85.2289 136.136 84.592C137.664 83.6823 139.006 82.5657 140.162 81.2421ZM47.7042 112.416C47.5542 111.536 47.434 110.645 47.3448 109.744L41.5848 51.5681C40.5277 40.8907 44.0337 30.264 51.2372 22.312C58.4408 14.36 68.6703 9.82402 79.3999 9.82402H122.216C124.883 9.82402 127.603 9.96559 130.349 10.2747C139.514 3.45737 150.111 0.512024 160.32 0.512024C171.605 0.512024 183.628 4.08027 193.621 12.8982C196.87 15.7648 199.616 18.9464 201.87 22.3521C205.388 21.5747 209.066 21.152 212.873 21.152C219 21.152 225.362 22.0638 231.685 24.2156C233.294 24.7577 234.849 25.365 236.352 26.0283C244.611 22.6584 253.436 21.152 262.139 21.152C273.709 21.152 288.748 23.357 301.801 33.2867C315.821 43.8804 322.603 59.4757 322.603 75.568C322.603 80.766 321.837 85.7721 320.384 90.4884C321.852 97.2177 321.472 104.262 319.247 110.824H324.614C335.094 110.824 345.108 115.152 352.289 122.784C359.471 130.416 363.181 140.676 362.544 151.136L359.952 193.664C359.814 195.916 359.479 198.128 358.96 200.278C358.964 200.535 358.966 200.792 358.966 201.048C358.966 211.487 355.478 222.519 347.32 231.535C347.114 231.763 346.904 231.989 346.692 232.212C335.924 243.547 322.471 245.96 313.67 245.96C308.896 245.96 302.754 245.25 296.414 242.792C289.435 245.02 282.394 245.96 275.561 245.96C268.621 245.96 261.673 244.992 254.961 242.904C251.045 244.264 246.847 245 242.496 245H225.696C223.187 245 220.732 244.756 218.353 244.289C215.974 244.756 213.517 245 211.008 245H193.92C191.53 245 189.188 244.778 186.914 244.354C184.641 244.778 182.297 245 179.904 245H162.24C160.554 245 158.893 244.89 157.264 244.677C155.635 244.89 153.976 245 152.293 245H136.453C134.932 245 133.429 244.91 131.951 244.735C127.687 245.567 123.37 245.96 119.077 245.96C111.788 245.96 104.275 244.674 97.0969 241.727C88.3363 244.672 79.3296 245.96 70.3902 245.96C54.1618 245.96 35.2959 242.022 20.3463 227.952C20.2346 227.846 20.1235 227.741 20.013 227.634C5.09883 213.253 0.326172 194.57 0.326172 177.816C0.326172 160.811 5.31416 142.025 20.5185 127.699C20.5218 127.696 20.525 127.693 20.5283 127.69C28.7358 119.957 38.0992 115.139 47.7042 112.416ZM162.24 207H179.904L180.864 184.824C180.902 184.048 180.965 183.318 181.054 182.635C181.06 182.59 181.065 182.545 181.071 182.501C181.093 182.345 181.115 182.191 181.139 182.04C181.164 181.882 181.19 181.727 181.217 181.575C181.393 180.608 181.627 179.749 181.92 178.999C181.938 178.953 181.956 178.906 181.975 178.861C182.987 176.372 184.665 175.128 187.008 175.128C188.465 175.128 189.52 175.704 190.17 176.857C190.205 176.919 190.239 176.983 190.272 177.048C190.547 177.598 190.798 178.385 191.026 179.409C191.052 179.526 191.078 179.646 191.103 179.768C191.241 180.435 191.369 181.192 191.489 182.04C191.544 182.434 191.598 182.847 191.65 183.279C191.653 183.309 191.657 183.34 191.66 183.37C191.711 183.803 191.76 184.256 191.808 184.728L193.92 207H211.008L212.294 189.515L212.295 189.509L212.64 184.824C212.672 184.359 212.712 183.911 212.761 183.48C212.772 183.383 212.783 183.287 212.795 183.192C212.813 183.051 212.831 182.912 212.85 182.775C212.852 182.761 212.854 182.746 212.856 182.732C212.862 182.695 212.867 182.658 212.872 182.622C212.927 182.248 212.989 181.889 213.058 181.543C213.089 181.386 213.122 181.231 213.156 181.08C213.946 177.572 215.504 175.615 217.829 175.208C218.134 175.155 218.452 175.128 218.784 175.128C220.32 175.128 221.408 175.768 222.048 177.048C222.137 177.227 222.224 177.432 222.309 177.661C222.344 177.756 222.378 177.855 222.413 177.958C222.673 178.748 222.909 179.789 223.119 181.08C223.146 181.246 223.173 181.415 223.199 181.589C223.207 181.642 223.215 181.695 223.223 181.749C223.29 182.203 223.354 182.684 223.415 183.192C223.474 183.679 223.53 184.191 223.584 184.728L225.696 207H242.496C242.565 206.456 242.632 205.919 242.698 205.388C242.72 205.212 242.742 205.037 242.763 204.862C242.862 204.062 242.956 203.277 243.047 202.506C243.463 198.984 243.801 195.775 244.06 192.879C244.105 192.381 244.147 191.893 244.187 191.413C244.195 191.315 244.203 191.218 244.211 191.121C244.213 191.094 244.215 191.068 244.218 191.041C244.253 190.61 244.286 190.186 244.318 189.77C244.386 188.867 244.445 187.999 244.495 187.168C244.498 187.123 244.5 187.078 244.503 187.032C244.585 185.652 244.642 184.372 244.674 183.192C244.678 183.035 244.682 182.88 244.685 182.727C244.686 182.69 244.687 182.654 244.687 182.618C244.698 182.083 244.704 181.571 244.704 181.08C244.704 180.396 244.686 179.724 244.651 179.064C244.459 175.453 243.74 172.192 242.496 169.282C242.455 169.188 242.414 169.094 242.373 169C242.116 168.42 241.838 167.854 241.539 167.302C241.354 166.962 241.161 166.626 240.96 166.296C240.905 166.206 240.849 166.116 240.792 166.028C240.495 165.562 240.18 165.124 239.847 164.714C238.78 163.401 237.526 162.371 236.087 161.624C234.193 160.643 231.978 160.152 229.44 160.152C227.676 160.152 226.046 160.315 224.548 160.642C222.826 161.017 221.279 161.608 219.909 162.415C219.569 162.615 219.241 162.828 218.923 163.054C218.876 163.087 218.83 163.121 218.784 163.155C218.311 163.5 217.863 163.875 217.44 164.28C216.032 165.624 214.976 166.776 214.272 167.736C214.077 168.001 213.873 168.29 213.66 168.604C213.099 169.427 212.471 170.418 211.776 171.576C211.582 170.785 211.326 170.014 211.008 169.262C210.971 169.174 210.933 169.087 210.894 169C210.622 168.39 210.308 167.792 209.952 167.208C209.207 165.983 208.279 164.816 207.168 163.704C206.738 163.262 206.283 162.861 205.804 162.502C204.271 161.352 202.487 160.624 200.452 160.318C199.733 160.21 198.983 160.155 198.201 160.152C198.182 160.152 198.163 160.152 198.144 160.152C197.997 160.152 197.851 160.154 197.705 160.157C196.756 160.177 195.828 160.263 194.923 160.416C194.484 160.49 194.051 160.579 193.623 160.684C192.941 160.851 192.272 161.058 191.616 161.304C191.155 161.482 190.717 161.664 190.302 161.849C190.039 161.966 189.786 162.084 189.541 162.204C188.55 162.689 187.705 163.196 187.008 163.726C186.975 163.751 186.943 163.775 186.912 163.8C185.76 164.696 184.704 165.752 183.744 166.968C182.848 168.184 182.272 169.048 182.016 169.56C181.983 169.637 181.951 169.711 181.92 169.782C181.77 170.126 181.642 170.404 181.536 170.616L181.92 161.496H160.224L162.24 207ZM152.773 202.776C152.904 201.771 153.028 200.791 153.144 199.836C153.291 198.625 153.427 197.454 153.55 196.323C153.717 194.788 153.862 193.327 153.986 191.94C154.023 191.513 154.059 191.093 154.093 190.68C154.11 190.471 154.127 190.263 154.143 190.057C154.175 189.643 154.205 189.235 154.233 188.835C154.241 188.717 154.249 188.6 154.257 188.483C154.261 188.418 154.266 188.353 154.27 188.288C154.334 187.318 154.385 186.393 154.422 185.512C154.449 184.879 154.469 184.269 154.482 183.682C154.483 183.627 154.484 183.573 154.486 183.518C154.496 183.008 154.501 182.515 154.501 182.04C154.501 179.676 154.276 177.504 153.826 175.523C153.462 173.922 152.951 172.445 152.293 171.094C152.105 170.708 151.905 170.332 151.693 169.966C151.57 169.755 151.444 169.548 151.314 169.344C151.24 169.228 151.165 169.113 151.089 169C150.429 168.02 149.674 167.122 148.823 166.305C148.643 166.133 148.459 165.963 148.27 165.798C147.791 165.377 147.285 164.98 146.751 164.607C146.234 164.246 145.692 163.906 145.123 163.589C144.705 163.355 144.272 163.134 143.826 162.924C143.346 162.698 142.85 162.486 142.338 162.288C141.887 162.114 141.423 161.95 140.946 161.797C138.492 161.008 135.704 160.503 132.583 160.282C132.495 160.276 132.405 160.269 132.316 160.264C131.298 160.197 130.245 160.16 129.157 160.153C129.03 160.152 128.902 160.152 128.773 160.152C128.421 160.152 128.069 160.156 127.717 160.164C126.336 160.197 124.96 160.294 123.589 160.454C123.153 160.505 122.718 160.563 122.283 160.627C122.266 160.629 122.25 160.632 122.233 160.634C121.66 160.719 121.088 160.815 120.517 160.923C117.755 161.443 115.014 162.225 112.294 163.271C112.23 163.295 112.167 163.32 112.104 163.345C111.813 163.458 111.523 163.574 111.233 163.693C111.224 163.696 111.214 163.7 111.205 163.704L113.605 172.344C113.956 172.248 114.303 172.156 114.644 172.068C114.802 172.027 114.96 171.987 115.117 171.948C116.013 171.725 116.873 171.532 117.698 171.369C118.169 171.276 118.629 171.193 119.077 171.12C119.571 171.039 120.051 170.97 120.517 170.914C121.244 170.825 121.937 170.766 122.596 170.735C122.936 170.72 123.267 170.712 123.589 170.712C123.713 170.712 123.835 170.713 123.957 170.716C125.359 170.743 126.612 170.926 127.717 171.265C128.086 171.379 128.438 171.509 128.773 171.657C128.852 171.692 128.929 171.727 129.005 171.764C129.056 171.788 129.107 171.813 129.157 171.838C130.9 172.711 132.16 174.091 132.937 175.978C132.978 176.078 133.017 176.178 133.056 176.28C133.328 177.009 133.533 177.809 133.669 178.68C132.744 178.281 131.778 177.932 130.769 177.633C130.644 177.596 130.517 177.559 130.39 177.523C129.986 177.409 129.575 177.303 129.157 177.205C129.03 177.175 128.902 177.146 128.773 177.117C128.426 177.04 128.074 176.969 127.717 176.902C127.337 176.831 126.952 176.766 126.561 176.708C125.601 176.563 124.611 176.455 123.589 176.384C123.343 176.367 123.094 176.352 122.844 176.339C122.416 176.317 121.982 176.301 121.543 176.291C121.204 176.284 120.862 176.28 120.517 176.28C120.03 176.28 119.55 176.291 119.077 176.314C118.422 176.345 117.78 176.398 117.151 176.472C116.969 176.494 116.788 176.517 116.609 176.542C116.569 176.548 116.53 176.553 116.49 176.559C116.472 176.562 116.454 176.564 116.436 176.567C116.312 176.585 116.188 176.604 116.065 176.624C115.651 176.692 115.244 176.769 114.842 176.855C114.097 177.016 113.372 177.211 112.668 177.439C111.444 177.836 110.282 178.335 109.182 178.936C108.625 179.241 108.083 179.571 107.557 179.928C106.545 180.597 105.675 181.383 104.949 182.287C104.692 182.607 104.453 182.941 104.231 183.291C103.033 185.182 102.36 187.504 102.212 190.258C102.211 190.29 102.209 190.321 102.208 190.352C102.202 190.461 102.198 190.57 102.194 190.68C102.185 190.933 102.181 191.189 102.181 191.448C102.181 191.571 102.182 191.694 102.184 191.816C102.208 193.539 102.405 195.133 102.775 196.595C102.974 197.381 103.223 198.13 103.522 198.84C103.566 198.945 103.611 199.05 103.658 199.154C103.762 199.386 103.871 199.614 103.986 199.837C104.725 201.276 105.692 202.544 106.885 203.64C107.32 204.032 107.772 204.397 108.239 204.735C109 205.287 109.805 205.768 110.652 206.178C112.754 207.197 115.119 207.779 117.745 207.924C117.767 207.925 117.788 207.926 117.81 207.927C118.226 207.949 118.648 207.96 119.077 207.96C119.563 207.96 120.043 207.95 120.517 207.929L120.519 207.928C120.706 207.92 120.891 207.91 121.075 207.899C121.831 207.852 122.57 207.777 123.293 207.676C123.392 207.662 123.491 207.647 123.589 207.632C123.803 207.6 124.015 207.565 124.226 207.528C124.693 207.445 125.153 207.351 125.605 207.244C125.746 207.211 125.885 207.177 126.024 207.142C126.6 206.996 127.164 206.831 127.717 206.646C128.206 206.482 128.686 206.303 129.157 206.108C130.139 205.703 131.081 205.231 131.984 204.692C133.247 203.938 134.432 203.053 135.539 202.037C135.601 201.98 135.664 201.922 135.726 201.863C135.776 201.816 135.827 201.768 135.877 201.72L136.453 207H152.293L152.773 202.776ZM131.081 195.645C132.566 195.256 133.909 194.594 135.109 193.656L134.533 187.32C134.038 186.983 133.524 186.699 132.992 186.466C132.234 186.135 131.438 185.909 130.605 185.789C130.134 185.722 129.652 185.688 129.157 185.688C129.066 185.688 128.976 185.689 128.887 185.691C128.849 185.692 128.811 185.693 128.773 185.695C128.409 185.707 128.057 185.738 127.717 185.786C126.423 185.972 125.303 186.419 124.357 187.128C124.066 187.358 123.81 187.6 123.589 187.855C123.511 187.946 123.436 188.038 123.366 188.132C123.313 188.203 123.263 188.276 123.215 188.349C123.199 188.374 123.183 188.398 123.167 188.423C122.744 189.098 122.533 189.85 122.533 190.68C122.533 190.908 122.546 191.131 122.571 191.35C122.575 191.383 122.579 191.415 122.583 191.448C122.702 192.352 123.038 193.185 123.589 193.945C123.601 193.962 123.614 193.979 123.626 193.996C123.649 194.027 123.673 194.058 123.697 194.089C123.784 194.203 123.876 194.314 123.973 194.424C124.042 194.502 124.112 194.577 124.184 194.649C124.775 195.246 125.467 195.653 126.26 195.87C126.713 195.994 127.199 196.056 127.717 196.056C128.02 196.056 128.317 196.047 128.611 196.03C128.665 196.026 128.719 196.023 128.773 196.019C128.902 196.01 129.03 195.999 129.157 195.986C129.528 195.949 129.892 195.897 130.248 195.831C130.433 195.796 130.616 195.757 130.797 195.715C130.892 195.693 130.987 195.669 131.081 195.645ZM91.2724 203.091C92.0556 202.696 92.8389 202.271 93.6222 201.816C93.971 201.613 94.302 201.416 94.6152 201.223C96.0835 200.32 97.1605 199.526 97.8462 198.84V176.28H74.6142L72.6942 185.976H79.7982L82.0062 195.192C81.3402 195.47 80.6682 195.687 79.9902 195.844C79.9262 195.859 79.8622 195.873 79.7982 195.887C79.2411 196.007 78.68 196.086 78.1149 196.124C77.8449 196.143 77.574 196.152 77.3022 196.152C77.1386 196.152 76.9764 196.149 76.8154 196.144C76.0523 196.118 75.3186 196.031 74.6142 195.883C73.9479 195.743 73.3079 195.549 72.6942 195.299C71.88 194.969 71.112 194.542 70.3902 194.019C69.4384 193.329 68.567 192.472 67.7757 191.448C67.7511 191.416 67.7266 191.384 67.7022 191.352C67.1976 190.688 66.7453 189.97 66.3455 189.199C65.6084 187.777 65.0492 186.173 64.6678 184.387C64.6571 184.337 64.6466 184.286 64.6362 184.236C64.4728 183.446 64.3438 182.62 64.2493 181.759C64.2343 181.624 64.2203 181.487 64.2071 181.35C64.1051 180.288 64.0542 179.174 64.0542 178.008C64.0542 177.944 64.0544 177.88 64.0547 177.816C64.0577 177.291 64.0729 176.779 64.1003 176.28C64.139 175.573 64.2022 174.892 64.2899 174.236C64.2932 174.211 64.2964 174.187 64.2997 174.163C64.3002 174.159 64.3008 174.155 64.3013 174.152C64.891 169.856 66.5361 166.654 69.2367 164.545C69.3936 164.423 69.5541 164.304 69.7182 164.189C70.4624 163.666 71.28 163.22 72.1709 162.85C72.3426 162.778 72.517 162.71 72.6942 162.644C72.8666 162.58 73.0415 162.519 73.2191 162.46C73.6677 162.312 74.1327 162.181 74.6142 162.067C75.4594 161.867 76.3554 161.719 77.3022 161.625C78.0983 161.545 78.9303 161.502 79.7982 161.497C79.862 161.496 79.926 161.496 79.9902 161.496C82.0869 161.496 84.0373 161.659 85.8413 161.984C85.9212 161.998 86.0008 162.013 86.0801 162.028C86.5404 162.115 86.991 162.213 87.4319 162.322C87.601 162.364 87.7688 162.407 87.9351 162.452C88.2006 162.523 88.4625 162.599 88.7208 162.679C89.4212 162.895 90.095 163.141 90.7422 163.416L94.9662 154.872L94.0062 154.104C93.3022 153.592 92.2142 152.984 90.7422 152.28C90.0468 151.929 89.3434 151.597 88.6318 151.284C88.3923 151.179 88.1519 151.076 87.9105 150.975C86.8253 150.522 85.7215 150.112 84.5992 149.747C84.5592 149.734 84.5192 149.721 84.4791 149.708C83.0143 149.236 81.518 148.839 79.9902 148.517C79.9262 148.503 79.8622 148.49 79.7982 148.477C78.8496 148.281 77.889 148.114 76.9162 147.976C76.8212 147.963 76.7261 147.949 76.6308 147.936C75.9643 147.846 75.292 147.769 74.6142 147.705C73.0137 147.555 71.3817 147.48 69.7182 147.48C66.3507 147.48 63.2336 147.786 60.3667 148.399C54.8426 149.579 50.2478 151.897 46.5822 155.352C42.8102 158.905 40.3308 163.539 39.1438 169.256C38.5987 171.881 38.3262 174.735 38.3262 177.816C38.3262 177.88 38.3263 177.944 38.3265 178.008C38.3279 178.4 38.3337 178.789 38.3438 179.174C38.5286 186.217 40.1672 192.014 43.2595 196.564C44.1755 197.912 45.2191 199.151 46.3902 200.28C47.422 201.251 48.546 202.13 49.762 202.917C50.2548 203.236 50.7627 203.54 51.2858 203.828C55.4071 206.103 60.4676 207.438 66.4672 207.835C67.733 207.918 69.0407 207.96 70.3902 207.96C71.1668 207.96 71.9348 207.944 72.6942 207.911C73.3404 207.883 73.9804 207.843 74.6142 207.792C75.5231 207.718 76.4191 207.62 77.3022 207.497C78.1459 207.38 78.9779 207.241 79.7982 207.079C82.0211 206.641 84.1576 206.04 86.2076 205.275C86.4537 205.184 86.6986 205.089 86.9423 204.993C87.1862 204.896 87.4288 204.797 87.6702 204.696C88.8709 204.231 90.0716 203.696 91.2724 203.091ZM260.058 203.741C260.505 204.028 260.96 204.3 261.423 204.557C262.741 205.289 264.124 205.903 265.572 206.398C265.78 206.47 265.989 206.538 266.199 206.604C266.692 206.76 267.193 206.902 267.701 207.03C267.98 207.101 268.262 207.168 268.546 207.23C268.613 207.245 268.68 207.26 268.747 207.274C268.762 207.277 268.777 207.28 268.791 207.283C269.512 207.436 270.247 207.563 270.997 207.664C271.171 207.687 271.346 207.709 271.522 207.73C272.826 207.883 274.172 207.96 275.561 207.96C275.754 207.96 275.946 207.958 276.137 207.955C276.688 207.947 277.232 207.925 277.769 207.891C278.091 207.871 278.411 207.846 278.729 207.817C279.182 207.775 279.63 207.723 280.073 207.663C280.288 207.634 280.501 207.602 280.713 207.569C281.69 207.414 282.643 207.213 283.571 206.967C284.275 206.78 284.965 206.567 285.641 206.328C287.528 205.62 289.101 204.937 290.36 204.277C291.151 203.863 291.818 203.459 292.361 203.064C293.201 202.415 293.973 201.743 294.676 201.048C294.831 200.895 294.983 200.741 295.131 200.586C295.211 200.502 295.29 200.418 295.367 200.334C295.589 200.095 295.803 199.853 296.009 199.608L290.057 192.408C290.037 192.425 290.018 192.442 289.998 192.459C289.863 192.573 289.727 192.686 289.589 192.795C289.298 193.026 289 193.244 288.697 193.45C287.941 193.963 287.148 194.396 286.316 194.752C286.221 194.792 286.125 194.832 286.03 194.87C285.214 195.198 284.362 195.452 283.475 195.632C282.976 195.733 282.466 195.81 281.945 195.865C281.942 195.865 281.939 195.865 281.936 195.866C281.866 195.873 281.796 195.88 281.725 195.886C281.35 195.92 280.969 195.943 280.582 195.953C280.414 195.958 280.244 195.96 280.073 195.96C279.613 195.96 279.165 195.939 278.729 195.898C278.402 195.868 278.082 195.825 277.769 195.771C277.203 195.674 276.659 195.539 276.137 195.366C275.942 195.302 275.75 195.232 275.561 195.157C275.332 195.066 275.108 194.967 274.889 194.861C274.559 194.701 274.239 194.523 273.929 194.328C273.505 194.034 273.124 193.703 272.787 193.335C272.306 192.808 271.914 192.205 271.611 191.526C271.605 191.512 271.599 191.499 271.593 191.485C271.57 191.432 271.547 191.379 271.525 191.325C271.473 191.198 271.423 191.069 271.377 190.936C271.184 190.384 271.042 189.786 270.953 189.144L272.009 189.336C272.181 189.369 272.355 189.401 272.531 189.432C272.653 189.453 272.776 189.473 272.899 189.493C273.538 189.594 274.201 189.677 274.889 189.742C275.11 189.763 275.334 189.782 275.561 189.799C275.751 189.813 275.943 189.826 276.137 189.838C276.335 189.849 276.535 189.86 276.737 189.869C276.827 189.873 276.917 189.877 277.008 189.88C277.259 189.89 277.513 189.897 277.769 189.902C278.085 189.909 278.405 189.912 278.729 189.912C278.983 189.912 279.234 189.91 279.483 189.906C279.596 189.904 279.709 189.901 279.822 189.899C279.906 189.896 279.99 189.894 280.073 189.891C280.728 189.871 281.364 189.835 281.982 189.785C282.019 189.782 282.056 189.779 282.092 189.775C282.198 189.766 282.303 189.757 282.407 189.747C282.433 189.745 282.459 189.742 282.484 189.74C282.542 189.734 282.6 189.728 282.658 189.722C283.137 189.673 283.605 189.615 284.061 189.546C284.512 189.479 284.951 189.402 285.379 189.316C285.62 189.268 285.857 189.216 286.091 189.162C286.249 189.125 286.406 189.087 286.561 189.048C286.727 189.006 286.891 188.962 287.053 188.916C287.254 188.86 287.453 188.801 287.649 188.74C287.7 188.724 287.75 188.708 287.8 188.692C287.844 188.678 287.887 188.664 287.931 188.65C288.093 188.596 288.254 188.541 288.412 188.484C289.999 187.914 291.379 187.174 292.553 186.264C292.615 186.216 292.676 186.167 292.737 186.119C293.535 185.476 294.23 184.786 294.821 184.049C294.823 184.046 294.825 184.044 294.827 184.041C294.917 183.928 295.005 183.815 295.09 183.7C295.165 183.6 295.237 183.499 295.308 183.398C296.215 182.092 296.82 180.647 297.124 179.064C297.142 178.966 297.16 178.868 297.176 178.77C297.294 178.063 297.353 177.329 297.353 176.568C297.353 176.276 297.347 175.988 297.334 175.704C297.325 175.491 297.312 175.281 297.296 175.072C297.018 171.514 295.727 168.547 293.422 166.172C293.074 165.813 292.703 165.468 292.309 165.137C292.078 164.942 291.839 164.753 291.593 164.568C291.021 164.129 290.411 163.724 289.762 163.35C289.649 163.285 289.535 163.222 289.42 163.159C289.321 163.105 289.221 163.051 289.121 162.999C288.204 162.52 287.217 162.101 286.159 161.743C286.029 161.699 285.897 161.656 285.764 161.613C284.048 161.066 282.151 160.672 280.073 160.432C279.937 160.416 279.8 160.401 279.662 160.387C279.501 160.37 279.339 160.354 279.176 160.339C279.028 160.326 278.879 160.313 278.729 160.301C278.413 160.275 278.093 160.253 277.769 160.234C277.727 160.231 277.685 160.229 277.643 160.226C277.531 160.22 277.418 160.214 277.305 160.209C276.948 160.192 276.587 160.178 276.221 160.169C276.193 160.168 276.165 160.167 276.137 160.167C275.727 160.157 275.311 160.152 274.889 160.152C274.028 160.152 273.187 160.179 272.366 160.233C272.329 160.236 272.292 160.238 272.255 160.241C271.466 160.296 270.696 160.376 269.945 160.481C269.901 160.487 269.857 160.493 269.813 160.499C269.71 160.514 269.607 160.53 269.505 160.546C269.436 160.556 269.368 160.567 269.3 160.578C267.946 160.797 266.655 161.1 265.427 161.488C264.901 161.654 264.386 161.836 263.883 162.033C263.272 162.272 262.678 162.535 262.101 162.82C261.998 162.871 261.896 162.923 261.794 162.975C260.522 163.629 259.336 164.397 258.235 165.278C256.545 166.63 255.057 168.249 253.769 170.136C252.595 171.822 251.697 173.678 251.075 175.704C250.746 176.776 250.494 177.896 250.32 179.064C250.222 179.721 250.148 180.393 250.099 181.08C250.075 181.41 250.057 181.744 250.045 182.082C250.043 182.128 250.042 182.173 250.04 182.219C250.03 182.54 250.025 182.865 250.025 183.192C250.025 184.67 250.105 186.083 250.266 187.432C250.273 187.486 250.279 187.54 250.286 187.595C250.324 187.899 250.366 188.201 250.412 188.499C250.426 188.585 250.439 188.67 250.453 188.756C250.632 189.846 250.867 190.892 251.158 191.893C252.08 195.06 253.563 197.776 255.607 200.041C256.14 200.631 256.712 201.191 257.321 201.72C258.051 202.337 258.807 202.908 259.588 203.433C259.744 203.538 259.901 203.64 260.058 203.741ZM273.361 173.133C273.319 173.17 273.277 173.207 273.235 173.246C273.114 173.356 272.993 173.472 272.873 173.592C272.483 173.999 272.145 174.426 271.858 174.873C271.685 175.143 271.531 175.42 271.396 175.704C271.373 175.752 271.351 175.799 271.33 175.847C271.224 176.083 271.131 176.323 271.05 176.568C270.869 177.118 270.752 177.694 270.699 178.294C270.676 178.546 270.665 178.803 270.665 179.064C271.148 179.284 271.68 179.465 272.261 179.61C272.394 179.643 272.531 179.674 272.669 179.703C272.952 179.763 273.245 179.814 273.549 179.857C273.608 179.865 273.668 179.873 273.728 179.881C273.764 179.885 273.8 179.89 273.836 179.894C274.055 179.921 274.28 179.944 274.509 179.962C274.634 179.972 274.761 179.981 274.889 179.988C275.032 179.997 275.177 180.004 275.324 180.009C275.402 180.012 275.481 180.015 275.561 180.017C275.574 180.017 275.587 180.017 275.6 180.018C275.613 180.018 275.627 180.018 275.64 180.019C275.667 180.019 275.693 180.02 275.72 180.02C275.739 180.021 275.757 180.021 275.776 180.021C275.895 180.023 276.015 180.024 276.137 180.024C276.145 180.024 276.154 180.024 276.162 180.024C276.217 180.024 276.271 180.024 276.325 180.023C276.833 180.018 277.315 179.995 277.769 179.951C278.104 179.92 278.424 179.877 278.729 179.825C278.837 179.806 278.942 179.786 279.046 179.765C279.084 179.758 279.121 179.75 279.158 179.742C279.194 179.734 279.23 179.726 279.265 179.718C279.549 179.654 279.818 179.579 280.073 179.495C280.108 179.483 280.142 179.471 280.176 179.459C280.295 179.418 280.41 179.374 280.523 179.328C280.721 179.247 280.909 179.159 281.087 179.064C281.201 179.003 281.311 178.939 281.417 178.872C281.922 178.544 282.327 178.181 282.632 177.784C282.92 177.409 283.12 177.004 283.231 176.568C283.302 176.292 283.337 176.004 283.337 175.704C283.337 175.662 283.336 175.62 283.335 175.578C283.333 175.503 283.329 175.428 283.324 175.354C283.285 174.854 283.164 174.39 282.958 173.963C282.923 173.89 282.885 173.817 282.845 173.745C282.763 173.6 282.67 173.46 282.568 173.323C282.475 173.2 282.373 173.08 282.263 172.963C282.224 172.922 282.184 172.882 282.143 172.841C282.075 172.774 282.003 172.708 281.929 172.643C281.887 172.607 281.844 172.571 281.801 172.536C281.477 172.255 281.109 172.022 280.697 171.836C280.499 171.746 280.291 171.668 280.073 171.6C279.839 171.528 279.594 171.468 279.336 171.421C279.141 171.385 278.938 171.356 278.729 171.335C278.423 171.304 278.103 171.288 277.769 171.288C277.406 171.288 277.046 171.322 276.691 171.39C276.651 171.398 276.61 171.406 276.57 171.415C276.425 171.446 276.28 171.482 276.137 171.525C275.944 171.582 275.752 171.649 275.561 171.727C275.509 171.748 275.456 171.77 275.404 171.793C275.329 171.826 275.254 171.861 275.18 171.897C275.082 171.944 274.985 171.994 274.889 172.047C274.573 172.219 274.26 172.421 273.952 172.651C273.889 172.698 273.827 172.746 273.765 172.795C273.651 172.885 273.537 172.979 273.424 173.078C273.403 173.096 273.382 173.114 273.361 173.133ZM305.318 191.352C305.62 191.156 305.934 190.974 306.26 190.806C306.513 190.675 306.772 190.553 307.039 190.439C307.081 190.421 307.123 190.403 307.165 190.385C309.004 189.622 311.172 189.24 313.67 189.24C315.594 189.24 317.322 189.466 318.854 189.919C319.358 190.068 319.84 190.241 320.301 190.439C320.912 190.7 321.485 191.005 322.022 191.352L324.614 148.824H302.726L305.318 191.352ZM319.135 196.144C319.094 196.099 319.051 196.054 319.008 196.009C318.968 195.968 318.927 195.927 318.885 195.887C318.307 195.329 317.607 194.904 316.787 194.613C315.892 194.295 314.853 194.136 313.67 194.136C311.403 194.136 309.665 194.72 308.455 195.887C308.413 195.927 308.372 195.968 308.332 196.01C308.289 196.054 308.246 196.099 308.205 196.144C308.202 196.147 308.2 196.15 308.198 196.152C306.982 197.432 306.374 199.064 306.374 201.048C306.374 203.008 306.967 204.655 308.154 205.991C308.168 206.007 308.183 206.024 308.198 206.04C308.2 206.042 308.203 206.045 308.205 206.047C308.288 206.134 308.373 206.218 308.461 206.299C309.233 207.005 310.218 207.486 311.417 207.742C312.099 207.887 312.85 207.96 313.67 207.96C314.49 207.96 315.241 207.887 315.923 207.742C317.122 207.486 318.107 207.005 318.879 206.299C318.967 206.218 319.052 206.134 319.135 206.047C319.137 206.045 319.14 206.042 319.142 206.04C320.358 204.696 320.966 203.032 320.966 201.048C320.966 199.064 320.358 197.432 319.142 196.152C319.14 196.15 319.137 196.147 319.135 196.144ZM169.889 42.9143C169.485 42.372 169.015 41.8646 168.48 41.392C167.922 40.9003 167.329 40.4715 166.701 40.1057C166.144 39.7815 165.558 39.5068 164.945 39.2815C164.499 39.1176 164.038 38.9798 163.562 38.8683C163.35 38.8186 163.135 38.7741 162.917 38.7348C162.122 38.5915 161.289 38.5174 160.416 38.5123C160.384 38.5121 160.352 38.512 160.32 38.512C160.158 38.512 159.998 38.5145 159.84 38.5193C158.943 38.5469 158.087 38.6524 157.274 38.8358C156.133 39.0929 155.074 39.5031 154.096 40.0665C153.446 40.4407 152.833 40.8826 152.256 41.392C151.968 41.6449 151.7 41.9097 151.451 42.1864C149.875 43.9401 149.088 46.1713 149.088 48.88C149.088 51.1433 149.678 53.094 150.859 54.732C151.281 55.3173 151.779 55.8626 152.352 56.368C152.91 56.8608 153.502 57.2904 154.128 57.6567C155.352 58.3727 156.704 58.847 158.185 59.0798C158.72 59.1638 159.271 59.2164 159.84 59.2374C159.998 59.2433 160.158 59.2468 160.32 59.2477C160.352 59.2479 160.384 59.248 160.416 59.248C162.75 59.248 164.811 58.7373 166.601 57.7158C166.614 57.7084 166.627 57.701 166.639 57.6936C167.289 57.3193 167.902 56.8775 168.48 56.368C168.652 56.2161 168.817 56.0606 168.976 55.9015C169.015 55.8623 169.053 55.8229 169.092 55.7833C169.534 55.3247 169.921 54.8367 170.253 54.3195C171.247 52.7695 171.744 50.9563 171.744 48.88C171.744 48.6054 171.735 48.3354 171.718 48.07C171.588 46.0971 170.979 44.3786 169.889 42.9143ZM158.778 63.4554C155.829 63.3625 152.999 62.8809 150.287 62.0104C150.07 61.9408 149.853 61.8686 149.638 61.7939C149.163 61.6294 148.691 61.4528 148.224 61.264L151.296 106H169.44L172.704 61.264L171.072 61.84C170.871 61.9055 170.67 61.969 170.466 62.0306C170.447 62.0364 170.427 62.0423 170.408 62.0481C169.003 62.4703 167.525 62.7986 165.977 63.033C164.216 63.2995 162.362 63.4447 160.416 63.4685C160.384 63.4689 160.352 63.4693 160.32 63.4696C160.16 63.4712 160 63.472 159.84 63.472C159.484 63.472 159.13 63.4665 158.778 63.4554ZM181.289 122.416H197.705L198.953 99.76C199.852 101.009 201.044 102.238 202.527 103.448C202.662 103.557 202.798 103.666 202.937 103.775C203.23 104.006 203.534 104.235 203.849 104.464C204.562 104.965 205.33 105.391 206.153 105.741C206.404 105.847 206.66 105.947 206.921 106.04C207.119 106.11 207.32 106.176 207.523 106.238C209.099 106.72 210.85 106.96 212.777 106.96C214.855 106.96 216.795 106.691 218.596 106.153C220.286 105.649 221.854 104.907 223.3 103.929C223.959 103.484 224.592 102.989 225.199 102.446C225.213 102.433 225.227 102.421 225.24 102.409C225.638 102.051 226.025 101.672 226.401 101.272C226.599 101.062 226.793 100.846 226.985 100.624C227.048 100.551 227.111 100.477 227.174 100.402C229.09 98.1076 230.485 95.2644 231.359 91.8723C231.807 90.1337 232.118 88.2508 232.292 86.2238C232.3 86.1306 232.307 86.0368 232.315 85.943C232.374 85.1922 232.415 84.4219 232.437 83.632C232.45 83.159 232.457 82.679 232.457 82.192C232.457 80.7513 232.389 79.3753 232.253 78.064C232.233 77.8737 232.212 77.6848 232.189 77.4973C232.153 77.1973 232.113 76.9008 232.069 76.6077C231.753 74.4768 231.242 72.5302 230.537 70.768C229.745 68.6837 228.776 66.9523 227.631 65.5739C227.018 64.8362 226.355 64.1995 225.641 63.664C224.737 62.9351 223.82 62.2991 222.889 61.7561C222.741 61.6694 222.592 61.5851 222.443 61.5031C221.475 60.9718 220.493 60.5401 219.497 60.208C218.532 59.8764 217.532 59.6229 216.496 59.4475C215.333 59.2505 214.125 59.152 212.873 59.152C212.127 59.152 211.388 59.2155 210.656 59.3423C209.932 59.4676 209.214 59.6548 208.503 59.9038C207.972 60.0896 207.445 60.3099 206.921 60.5645C206.664 60.6894 206.408 60.8225 206.153 60.964C206.089 60.9995 206.025 61.0355 205.961 61.072C205.299 61.442 204.705 61.7913 204.179 62.1198C203.412 62.5987 202.791 63.0336 202.314 63.4244C202.176 63.5373 202.05 63.6466 201.937 63.7521C201.827 63.8542 201.728 63.9528 201.641 64.048C201.001 64.752 200.521 65.36 200.201 65.872L199.145 60.496H178.505L181.289 122.416ZM212.476 85.7921C212.549 85.1052 212.585 84.3852 212.585 83.632C212.585 83.136 212.577 82.656 212.561 82.192C212.549 81.8419 212.533 81.5009 212.512 81.169L212.512 81.1633C212.501 80.9853 212.488 80.81 212.474 80.6374C212.459 80.44 212.441 80.246 212.422 80.0555C212.353 79.3667 212.262 78.7227 212.148 78.1234C212.127 78.0078 212.104 77.8938 212.08 77.7815C211.645 75.7007 210.928 74.1926 209.93 73.2573C209.114 72.4938 208.112 72.112 206.921 72.112C206.657 72.112 206.401 72.1271 206.153 72.1571C203.516 72.4771 201.815 74.5005 201.052 78.2272C200.817 79.3707 200.671 80.6746 200.613 82.139C200.613 82.1566 200.612 82.1743 200.611 82.192C200.604 82.3739 200.599 82.5582 200.595 82.7449C200.588 83.0347 200.585 83.3304 200.585 83.632C200.585 84.0194 200.594 84.4 200.613 84.7741C200.614 84.7892 200.614 84.8042 200.615 84.8193C200.729 87.0228 201.167 88.995 201.929 90.736C202.168 91.2457 202.435 91.692 202.729 92.0749C203.009 92.4386 203.313 92.7451 203.643 92.9943C204.361 93.5368 205.198 93.808 206.153 93.808C206.418 93.808 206.674 93.7943 206.921 93.7669C207.074 93.7499 207.224 93.7276 207.37 93.7C207.603 93.656 207.828 93.5984 208.043 93.5273C208.179 93.4825 208.312 93.4323 208.441 93.3768C208.448 93.3736 208.455 93.3705 208.462 93.3673C209.228 93.0328 209.866 92.5077 210.377 91.792C210.493 91.6299 210.605 91.4636 210.713 91.293C211.351 90.2783 211.826 89.1146 212.138 87.8018C212.264 87.2719 212.363 86.7177 212.436 86.1392C212.45 86.0244 212.464 85.9087 212.476 85.7921ZM244.372 65.234C244.208 65.3849 244.047 65.5385 243.887 65.695C242.84 66.7213 241.884 67.8683 241.019 69.136C239.845 70.8221 238.947 72.6781 238.325 74.704C238.02 75.6962 237.782 76.7291 237.61 77.8027C237.596 77.8895 237.583 77.9767 237.57 78.064C237.373 79.3796 237.275 80.7556 237.275 82.192C237.275 82.679 237.284 83.159 237.301 83.632C237.357 85.1471 237.503 86.5902 237.738 87.9615C237.912 88.9783 238.136 89.9555 238.408 90.8933C239.33 94.0599 240.813 96.7757 242.857 99.0406C243.39 99.6311 243.962 100.191 244.571 100.72C245.301 101.337 246.057 101.908 246.838 102.433C246.975 102.524 247.112 102.615 247.249 102.704C247.715 103.004 248.19 103.288 248.673 103.557C249.991 104.289 251.374 104.903 252.822 105.398C253.03 105.47 253.239 105.538 253.449 105.604C253.942 105.76 254.443 105.902 254.951 106.03C255.23 106.101 255.512 106.168 255.796 106.23C255.863 106.245 255.93 106.26 255.997 106.274C256.9 106.467 257.825 106.618 258.772 106.73C260.076 106.883 261.422 106.96 262.811 106.96C263.004 106.96 263.196 106.959 263.387 106.955C263.938 106.947 264.482 106.925 265.019 106.891C265.341 106.871 265.661 106.846 265.979 106.817C266.158 106.8 266.337 106.782 266.515 106.762C266.786 106.733 267.055 106.699 267.323 106.663C269.274 106.397 271.13 105.952 272.891 105.328C274.778 104.62 276.351 103.937 277.61 103.277C278.401 102.863 279.068 102.459 279.611 102.064C280.636 101.272 281.559 100.446 282.381 99.5859C282.461 99.5023 282.54 99.4185 282.617 99.3343C282.839 99.0948 283.053 98.8527 283.259 98.608L277.307 91.408C277.287 91.4249 277.268 91.4418 277.248 91.4586C277.113 91.5735 276.977 91.6856 276.839 91.7949C276.548 92.0261 276.25 92.2445 275.947 92.4504C275.191 92.9626 274.398 93.3965 273.566 93.7519C273.471 93.7924 273.375 93.832 273.28 93.8705C272.095 94.3463 270.834 94.6662 269.498 94.8304C269.394 94.8431 269.29 94.8549 269.186 94.8657C269.116 94.873 269.046 94.8798 268.975 94.8862C268.6 94.9205 268.219 94.9428 267.832 94.9532C267.664 94.9578 267.494 94.96 267.323 94.96C266.863 94.96 266.415 94.9395 265.979 94.8984C265.652 94.8676 265.332 94.8253 265.019 94.7714C264.453 94.6741 263.909 94.539 263.387 94.3662C263.192 94.3016 263 94.2317 262.811 94.1565C262.582 94.0656 262.358 93.967 262.139 93.8606C261.809 93.7006 261.489 93.523 261.179 93.328C260.149 92.6147 259.376 91.6806 258.861 90.5256C258.855 90.5121 258.849 90.4986 258.843 90.4852C258.82 90.4323 258.797 90.379 258.775 90.3252C258.723 90.1982 258.673 90.0686 258.627 89.9364C258.434 89.3837 258.292 88.7863 258.203 88.144L259.259 88.336C259.431 88.3693 259.605 88.4012 259.781 88.4316C259.903 88.4527 260.026 88.4731 260.149 88.4927C260.788 88.5943 261.451 88.6775 262.139 88.7421C262.36 88.763 262.584 88.7819 262.811 88.7989C263.001 88.8131 263.193 88.8261 263.387 88.8376C263.585 88.8494 263.785 88.8598 263.987 88.8689C264.077 88.8729 264.167 88.8766 264.258 88.8801C264.509 88.8896 264.763 88.897 265.019 88.9023C265.335 88.9088 265.655 88.912 265.979 88.912C266.233 88.912 266.484 88.9099 266.733 88.9057C266.846 88.9037 266.959 88.9014 267.072 88.8985C267.156 88.8964 267.24 88.8941 267.323 88.8915C267.978 88.8711 268.614 88.8355 269.232 88.7847C269.269 88.7817 269.306 88.7786 269.342 88.7755C269.474 88.7643 269.605 88.7523 269.734 88.7397C269.792 88.7341 269.85 88.7283 269.908 88.7224C270.01 88.712 270.111 88.7011 270.212 88.6898C270.586 88.6479 270.952 88.6001 271.311 88.5464C272.187 88.4154 273.02 88.2492 273.811 88.0478C273.977 88.0055 274.141 87.9618 274.303 87.9164C274.504 87.86 274.703 87.8011 274.899 87.7399C274.95 87.7241 275 87.7082 275.05 87.6921C275.094 87.6781 275.137 87.6639 275.181 87.6497C275.343 87.5961 275.504 87.5409 275.662 87.484C277.249 86.9144 278.629 86.1744 279.803 85.264C279.865 85.2158 279.926 85.1673 279.987 85.1185C282.378 83.1945 283.841 80.843 284.374 78.064C284.527 77.2672 284.603 76.4352 284.603 75.568C284.603 75.2764 284.597 74.9884 284.584 74.704C284.416 70.864 283.112 67.6866 280.672 65.1718C280.324 64.8132 279.953 64.4681 279.559 64.1365C279.328 63.9424 279.089 63.7529 278.843 63.568C278.271 63.1295 277.661 62.7236 277.012 62.3504C276.899 62.2855 276.785 62.2216 276.67 62.1587C274.122 60.7661 271.007 59.8572 267.323 59.4322C267.161 59.4134 266.997 59.3957 266.833 59.3788C266.698 59.365 266.563 59.3518 266.426 59.3393C266.278 59.3256 266.129 59.3127 265.979 59.3006C265.663 59.2749 265.343 59.2526 265.019 59.2337C264.977 59.2312 264.935 59.2288 264.893 59.2264C264.781 59.2202 264.668 59.2143 264.555 59.2088C264.198 59.1916 263.837 59.1783 263.471 59.1689C263.443 59.1681 263.415 59.1675 263.387 59.1668C262.977 59.1569 262.561 59.152 262.139 59.152C261.778 59.152 261.421 59.1568 261.068 59.1663C260.577 59.1795 260.093 59.2019 259.616 59.2335C259.579 59.2359 259.542 59.2384 259.505 59.241C259.444 59.2452 259.383 59.2496 259.322 59.2542C258.597 59.3082 257.888 59.3838 257.195 59.4807C257.151 59.4869 257.107 59.4931 257.063 59.4994C256.96 59.5143 256.857 59.5297 256.755 59.5455C256.686 59.5561 256.618 59.5669 256.55 59.5779C254.615 59.8906 252.809 60.3756 251.133 61.0329C250.522 61.2724 249.928 61.5348 249.351 61.8201C249.248 61.871 249.146 61.9226 249.044 61.9749C248.44 62.2856 247.855 62.6219 247.29 62.9839C246.252 63.6477 245.28 64.3977 244.372 65.234ZM263.412 79.024C263.467 79.0239 263.521 79.0237 263.575 79.0232C264.083 79.0185 264.565 78.9946 265.019 78.9515C265.354 78.9197 265.674 78.8775 265.979 78.8248C266.087 78.8063 266.192 78.7864 266.296 78.7653C266.334 78.7576 266.371 78.7498 266.408 78.7418C266.444 78.7341 266.48 78.7262 266.515 78.7181C266.799 78.6537 267.068 78.5792 267.323 78.4945C267.358 78.483 267.392 78.4713 267.426 78.4593C267.545 78.418 267.66 78.3743 267.773 78.3284C267.971 78.2473 268.159 78.1592 268.337 78.064C268.451 78.0029 268.561 77.9389 268.667 77.872C269.4 77.3958 269.922 76.8463 270.236 76.2233C270.341 76.0132 270.423 75.7948 270.481 75.568C270.552 75.2924 270.587 75.0044 270.587 74.704C270.587 74.6618 270.586 74.6199 270.585 74.5782C270.583 74.5027 270.579 74.4279 270.574 74.3539C270.535 73.8539 270.414 73.3904 270.208 72.9634C270.173 72.8896 270.135 72.817 270.095 72.7454C270.019 72.6114 269.935 72.4813 269.841 72.355C269.834 72.3444 269.826 72.3338 269.818 72.3233C269.692 72.1559 269.55 71.9952 269.393 71.8413C269.325 71.7741 269.253 71.7081 269.179 71.6435C269.137 71.6072 269.094 71.5714 269.051 71.536C268.727 71.2551 268.359 71.0216 267.947 70.8356C267.749 70.7461 267.541 70.6676 267.323 70.6C266.911 70.4725 266.463 70.3841 265.979 70.3348C265.673 70.3036 265.353 70.288 265.019 70.288C264.656 70.288 264.296 70.322 263.941 70.3899C263.901 70.3977 263.86 70.4059 263.82 70.4146C263.675 70.4456 263.53 70.4823 263.387 70.5247C263.194 70.5818 263.002 70.6493 262.811 70.727C262.759 70.7484 262.706 70.7705 262.654 70.7934C262.579 70.8263 262.504 70.8609 262.43 70.8971C262.332 70.9443 262.235 70.9941 262.139 71.0467C261.823 71.219 261.51 71.4205 261.202 71.6514C261.139 71.6981 261.077 71.746 261.015 71.7951C260.901 71.8852 260.787 71.9794 260.674 72.0776C260.653 72.0958 260.632 72.1142 260.611 72.1327C260.569 72.1698 260.527 72.2075 260.485 72.2457C260.364 72.3565 260.243 72.4719 260.123 72.592C259.733 72.9988 259.395 73.4258 259.108 73.8729C258.935 74.1426 258.781 74.4197 258.646 74.704C258.623 74.7516 258.601 74.7993 258.58 74.8473C258.474 75.0826 258.381 75.3228 258.3 75.568C258.119 76.1185 258.002 76.6939 257.949 77.2941C257.926 77.5464 257.915 77.803 257.915 78.064C258.398 78.2836 258.93 78.4655 259.511 78.6097C259.644 78.6429 259.781 78.6741 259.919 78.7032C260.257 78.7742 260.61 78.8335 260.978 78.8809C261.014 78.8855 261.05 78.89 261.086 78.8944C261.305 78.921 261.53 78.9436 261.759 78.962C261.884 78.972 262.011 78.9808 262.139 78.9884C262.282 78.9969 262.427 79.0039 262.574 79.0093C262.652 79.0122 262.731 79.0147 262.811 79.0167C262.824 79.0171 262.837 79.0174 262.85 79.0177C262.863 79.018 262.877 79.0183 262.89 79.0186C262.917 79.0192 262.943 79.0198 262.97 79.0202C262.989 79.0206 263.007 79.0209 263.026 79.0212C263.145 79.0231 263.265 79.024 263.387 79.024C263.395 79.024 263.404 79.024 263.412 79.024Z" fill="#78BC38"/>
</svg>
