<svg width="270" height="53" viewBox="0 0 270 53" fill="none" xmlns="http://www.w3.org/2000/svg">
    <path d="M33.224 9.91198L34.184 19.032L26.456 17.496L24.296 39H14.936L12.776 17.496L5 19.032L5.96 9.91198H33.224Z" fill="white"/>
    <path d="M43.8511 39.48C41.3871 39.48 39.3551 38.76 37.7551 37.32C36.1871 35.88 35.4031 33.848 35.4031 31.224C35.4031 28.568 36.2991 26.648 38.0911 25.464C39.8831 24.248 42.0431 23.64 44.5711 23.64C47.0991 23.64 49.2911 24.04 51.1471 24.84C50.7311 22.184 49.0511 20.856 46.1071 20.856C44.7631 20.856 43.0991 21.128 41.1151 21.672L39.9151 17.352C42.7951 16.168 45.7231 15.576 48.6991 15.576C57.2751 15.576 61.5631 19.224 61.5631 26.52C61.5631 29.016 61.2751 32.472 60.6991 36.888L60.4591 39H52.5391L52.2511 36.36C50.0751 38.44 47.2751 39.48 43.8511 39.48ZM48.1711 33.528C49.6111 33.528 50.8431 33.128 51.8671 32.328L51.5791 29.16C50.7791 28.616 49.8831 28.344 48.8911 28.344C47.9311 28.344 47.1311 28.584 46.4911 29.064C45.8831 29.544 45.5791 30.136 45.5791 30.84C45.5791 31.544 45.8191 32.168 46.2991 32.712C46.7791 33.256 47.4031 33.528 48.1711 33.528Z" fill="white"/>
    <path d="M82.5684 15.576C84.8084 15.576 86.7284 16.52 88.3284 18.408C89.9604 20.296 90.7764 22.76 90.7764 25.8C90.7764 28.808 90.4084 33.208 89.6724 39H81.2724L80.3124 28.248C79.9924 24.824 79.0644 23.112 77.5284 23.112C75.7044 23.112 74.7284 24.84 74.6004 28.296L74.2644 39H65.4324L64.4244 16.248H75.2724L75.0804 20.328C75.2404 20.008 75.6084 19.512 76.1844 18.84C76.7604 18.168 77.3204 17.624 77.8644 17.208C79.2724 16.12 80.8404 15.576 82.5684 15.576Z" fill="white"/>
    <path d="M107.402 47.88C105.834 47.88 104.298 47.64 102.794 47.16C101.29 46.712 100.186 46.264 99.4824 45.816L98.4264 45.096L100.538 40.776C101.914 41.448 103.194 41.784 104.378 41.784C106.554 41.784 108.154 41.096 109.178 39.72C110.202 38.344 110.714 36.76 110.714 34.968C110.714 34.648 110.698 34.328 110.666 34.008C109.162 37.016 106.698 38.52 103.274 38.52C100.266 38.52 97.8664 37.608 96.0744 35.784C94.3144 33.96 93.4344 31.064 93.4344 27.096C93.4344 24.888 93.7384 22.984 94.3464 21.384C94.9864 19.784 95.8184 18.584 96.8424 17.784C98.7304 16.312 100.826 15.576 103.13 15.576C104.73 15.576 106.09 15.96 107.21 16.728C108.138 17.4 108.922 18.136 109.562 18.936L109.274 16.248H120.41L119.594 34.92C119.178 43.56 115.114 47.88 107.402 47.88ZM106.202 22.056C104.314 22.056 103.37 23.816 103.37 27.336C103.37 27.976 103.418 28.6 103.514 29.208C103.642 29.816 103.946 30.424 104.426 31.032C104.938 31.64 105.658 31.944 106.586 31.944C107.514 31.944 108.202 31.496 108.65 30.6C109.13 29.704 109.37 28.616 109.37 27.336C109.37 23.816 108.314 22.056 106.202 22.056Z" fill="white"/>
    <path d="M134.489 16.92L135.305 16.632L133.673 39H124.601L123.065 16.632C124.889 17.368 126.825 17.736 128.873 17.736C130.953 17.736 132.825 17.464 134.489 16.92ZM129.161 15.624C127.561 15.624 126.217 15.144 125.129 14.184C124.041 13.224 123.497 11.976 123.497 10.44C123.497 8.87198 124.025 7.62398 125.081 6.69598C126.169 5.73598 127.513 5.25598 129.113 5.25598C130.745 5.25598 132.105 5.73598 133.193 6.69598C134.281 7.65598 134.825 8.90398 134.825 10.44C134.825 11.976 134.281 13.224 133.193 14.184C132.105 15.144 130.761 15.624 129.161 15.624Z" fill="white"/>
    <path d="M140.606 39L137.726 9.91198H152.846L150.686 31.56L159.374 31.08L156.638 39H140.606Z" fill="white"/>
    <path d="M174.312 39.48C170.696 39.48 167.656 38.44 165.192 36.36C162.76 34.248 161.544 31.16 161.544 27.096C161.544 24.536 162.168 22.36 163.416 20.568C165.688 17.24 169.208 15.576 173.976 15.576C177.624 15.576 180.408 16.312 182.328 17.784C184.248 19.224 185.208 21.224 185.208 23.784C185.208 25.768 184.408 27.384 182.808 28.632C181.24 29.848 178.936 30.456 175.896 30.456C174.648 30.456 173.528 30.36 172.536 30.168L172.008 30.072C172.168 31.224 172.664 32.088 173.496 32.664C174.36 33.208 175.384 33.48 176.568 33.48C178.52 33.48 180.184 32.888 181.56 31.704L184.536 35.304C184.024 35.912 183.416 36.488 182.712 37.032C182.008 37.544 180.888 38.088 179.352 38.664C177.816 39.208 176.136 39.48 174.312 39.48ZM178.2 23.352C178.2 22.712 177.944 22.184 177.432 21.768C176.952 21.352 176.28 21.144 175.416 21.144C174.552 21.144 173.736 21.528 172.968 22.296C172.232 23.064 171.864 23.976 171.864 25.032C172.568 25.352 173.48 25.512 174.6 25.512C175.752 25.512 176.632 25.32 177.24 24.936C177.88 24.52 178.2 23.992 178.2 23.352Z" fill="white"/>
    <path d="M196.054 39.48C193.59 39.48 191.558 38.76 189.958 37.32C188.39 35.88 187.606 33.848 187.606 31.224C187.606 28.568 188.502 26.648 190.294 25.464C192.086 24.248 194.246 23.64 196.774 23.64C199.302 23.64 201.494 24.04 203.35 24.84C202.934 22.184 201.254 20.856 198.31 20.856C196.966 20.856 195.302 21.128 193.318 21.672L192.118 17.352C194.998 16.168 197.926 15.576 200.902 15.576C209.478 15.576 213.766 19.224 213.766 26.52C213.766 29.016 213.478 32.472 212.902 36.888L212.662 39H204.742L204.454 36.36C202.278 38.44 199.478 39.48 196.054 39.48ZM200.374 33.528C201.814 33.528 203.046 33.128 204.07 32.328L203.782 29.16C202.982 28.616 202.086 28.344 201.094 28.344C200.134 28.344 199.334 28.584 198.694 29.064C198.086 29.544 197.782 30.136 197.782 30.84C197.782 31.544 198.022 32.168 198.502 32.712C198.982 33.256 199.606 33.528 200.374 33.528Z" fill="white"/>
    <path d="M227.283 19.368C228.979 16.84 231.076 15.576 233.572 15.576C234.756 15.576 235.843 15.864 236.835 16.44L235.684 24.312C234.404 23.416 232.963 22.968 231.363 22.968C229.827 22.968 228.787 23.608 228.243 24.888C227.924 25.688 227.716 26.456 227.62 27.192L226.708 39H218.068L216.628 16.248H226.083L227.283 19.368Z" fill="white"/>
    <path d="M256.428 15.576C258.668 15.576 260.588 16.52 262.188 18.408C263.82 20.296 264.636 22.76 264.636 25.8C264.636 28.808 264.268 33.208 263.532 39H255.132L254.172 28.248C253.852 24.824 252.924 23.112 251.388 23.112C249.564 23.112 248.588 24.84 248.46 28.296L248.124 39H239.292L238.284 16.248H249.132L248.94 20.328C249.1 20.008 249.468 19.512 250.044 18.84C250.62 18.168 251.18 17.624 251.724 17.208C253.132 16.12 254.7 15.576 256.428 15.576Z" fill="white"/>
    <path fill-rule="evenodd" clip-rule="evenodd" d="M33.224 4.91198C35.7828 4.91198 37.9287 6.84382 38.1966 9.38856L38.5264 12.5223C41.8216 11.2368 45.2215 10.576 48.6992 10.576C52.9666 10.576 57.0144 11.3568 60.2486 13.4978C60.4134 13.2477 60.6014 13.0111 60.8115 12.7916C61.7547 11.8056 63.0599 11.248 64.4244 11.248H75.2724C75.999 11.248 76.7088 11.4061 77.3561 11.7028C78.9707 10.9625 80.7212 10.576 82.5684 10.576C86.4348 10.576 89.6911 12.2915 92.1271 15.1568C92.1644 15.2001 92.2013 15.2434 92.2379 15.287C92.6961 14.7666 93.2031 14.2822 93.7642 13.8439L93.7681 13.8408C96.4976 11.7128 99.6665 10.576 103.13 10.576C104.754 10.576 106.361 10.8419 107.874 11.448C108.325 11.3166 108.796 11.248 109.274 11.248H118.526C118.507 10.9809 118.497 10.7115 118.497 10.44C118.497 7.61934 119.512 4.93336 121.78 2.94015C123.877 1.09381 126.433 0.255981 129.113 0.255981C131.8 0.255981 134.385 1.07917 136.501 2.94679C137.178 3.54386 137.75 4.20308 138.218 4.91198H152.846C154.258 4.91198 155.605 5.50938 156.553 6.55655C157.5 7.60371 157.961 9.00293 157.821 10.4084L156.241 26.2454L156.562 26.2277C156.695 23.1561 157.546 20.2565 159.299 17.7303C162.683 12.7866 167.911 10.576 173.976 10.576C178.183 10.576 182.215 11.4072 185.349 13.8C186.123 14.3829 186.804 15.0263 187.391 15.7222C187.846 14.4057 188.844 13.2919 190.217 12.7275C193.672 11.3072 197.244 10.576 200.902 10.576C205.17 10.576 209.218 11.3568 212.452 13.4978C212.608 13.2608 212.785 13.0358 212.982 12.8259C213.927 11.8191 215.247 11.248 216.628 11.248H226.084C226.891 11.248 227.667 11.4422 228.356 11.794C229.904 11.0155 231.645 10.576 233.572 10.576C234.964 10.576 236.321 10.8131 237.609 11.2937C237.831 11.2634 238.057 11.248 238.284 11.248H249.132C249.858 11.248 250.568 11.4061 251.215 11.7028C252.83 10.9625 254.581 10.576 256.428 10.576C260.294 10.576 263.55 12.2912 265.986 15.1562C268.554 18.1367 269.636 21.8403 269.636 25.8C269.636 29.1323 269.235 33.7848 268.492 39.6303C268.174 42.1279 266.049 44 263.532 44H255.132C253.774 44 252.533 43.4561 251.628 42.5668C250.724 43.4542 249.486 44 248.124 44H239.292C236.616 44 234.415 41.894 234.297 39.2213L233.842 28.9606C233.484 28.8188 233.139 28.6343 232.816 28.4081C232.73 28.3475 232.642 28.2931 232.553 28.245L231.693 39.385C231.492 41.9893 229.32 44 226.708 44H218.068C217.075 44 216.146 43.7096 215.365 43.207C214.582 43.7102 213.653 44 212.662 44H204.742C203.896 44 203.095 43.7886 202.392 43.4135C200.417 44.1353 198.287 44.48 196.054 44.48C192.546 44.48 189.264 43.4222 186.613 41.0365L186.576 41.0026C186.448 40.8848 186.323 40.7652 186.202 40.6437C186.059 40.7606 185.915 40.8755 185.769 40.9884C185.731 41.0181 185.692 41.0471 185.653 41.0757C184.392 41.9922 182.763 42.7248 181.107 43.3456C181.079 43.3564 181.05 43.3669 181.021 43.3771C178.889 44.1322 176.637 44.48 174.312 44.48C169.668 44.48 165.443 43.1153 161.967 40.1807C161.954 40.1702 161.942 40.1596 161.929 40.1489L161.913 40.1351C161.816 40.0502 161.719 39.9644 161.624 39.8777L161.364 40.6326C160.667 42.6479 158.77 44 156.638 44H140.606C139.267 44 138.042 43.4714 137.139 42.6034C136.238 43.4705 135.014 44 133.673 44H124.601C123.954 44 123.335 43.8767 122.765 43.6518C122.049 45.2765 121.101 46.7642 119.876 48.066C116.637 51.5089 112.202 52.88 107.402 52.88C105.332 52.88 103.299 52.5642 101.322 51.9385C99.7063 51.4551 98.0855 50.8536 96.798 50.0343C96.7535 50.0059 96.7094 49.9769 96.6657 49.9471L95.6097 49.2271C93.5567 47.8273 92.8431 45.1323 93.9345 42.8999L94.7852 41.1599C94.6289 41.0576 94.4743 40.9518 94.3214 40.8424C93.5822 42.7097 91.7626 44 89.6724 44H81.2724C79.9143 44 78.674 43.4561 77.7684 42.5668C76.865 43.4542 75.6268 44 74.2644 44H65.4324C64.5287 44 63.6791 43.7597 62.9456 43.3384C62.2105 43.7603 61.3603 44 60.4592 44H52.5392C51.6928 44 50.8915 43.7886 50.1884 43.4135C48.2142 44.1353 46.0841 44.48 43.8512 44.48C40.343 44.48 37.0612 43.4222 34.4103 41.0365L34.3731 41.0026C31.5416 38.4023 30.4032 34.8977 30.4032 31.224C30.4032 28.5446 31.0695 25.9448 32.6437 23.8236L30.8808 23.4732L29.271 39.4997C29.0144 42.0548 26.864 44 24.296 44H14.936C12.3681 44 10.2177 42.0548 9.96107 39.4997L8.35062 23.4668L5.96897 23.9372C4.41111 24.2449 2.7997 23.7943 1.62739 22.7232C0.455084 21.6521 -0.138724 20.0878 0.0275112 18.5086L0.987511 9.38856C1.25538 6.84382 3.40125 4.91198 5.96004 4.91198H33.224ZM12.776 17.496L14.936 39H24.296L26.456 17.496L34.184 19.032L33.224 9.91198H5.96L5 19.032L12.776 17.496ZM37.9612 25.5522C36.2558 26.7424 35.4031 28.633 35.4031 31.224C35.4031 33.848 36.1871 35.88 37.7551 37.32C39.3551 38.76 41.3871 39.48 43.8511 39.48C45.163 39.48 46.3833 39.3273 47.5119 39.022C48.0352 38.8804 48.5389 38.706 49.0228 38.4988C50.2193 37.9865 51.2954 37.2736 52.2511 36.36L52.5391 39H60.4591L60.6991 36.888C61.2751 32.472 61.5631 29.016 61.5631 26.52C61.5631 23.6466 60.8981 21.339 59.5679 19.5972C57.5206 16.9164 53.8976 15.576 48.6991 15.576C47.4247 15.576 46.159 15.6845 44.9022 15.9017C43.2289 16.1908 41.5712 16.6723 39.9291 17.3463C39.9244 17.3482 39.9198 17.3501 39.9151 17.352L41.1151 21.672C41.2907 21.6238 41.4638 21.5778 41.6344 21.5339C42.7137 21.2563 43.6926 21.0639 44.5712 20.9568C44.8975 20.917 45.2099 20.889 45.5086 20.8728C45.7147 20.8616 45.9142 20.856 46.1071 20.856C48.5166 20.856 50.0795 21.7456 50.7956 23.5247C50.9544 23.9194 51.0716 24.3578 51.1471 24.84C50.4434 24.5367 49.6915 24.2908 48.8912 24.1025C48.0614 23.9073 47.1797 23.7738 46.2461 23.7022C46.1999 23.6987 46.1536 23.6953 46.1072 23.692C45.6097 23.6573 45.0977 23.64 44.5711 23.64C43.5673 23.64 42.6214 23.7359 41.7336 23.9276C40.3857 24.2187 39.1715 24.7309 38.0911 25.464C38.0473 25.493 38.004 25.5224 37.9612 25.5522ZM47.8154 33.5073C47.9303 33.5211 48.0489 33.528 48.1711 33.528C48.6124 33.528 49.0342 33.4904 49.4364 33.4153C50.3467 33.2453 51.1569 32.8828 51.8671 32.328L51.5791 29.16C50.9785 28.7516 50.3238 28.4965 49.615 28.3947C49.3797 28.3609 49.1384 28.344 48.8911 28.344C48.123 28.344 47.4573 28.4976 46.894 28.805C46.7533 28.8817 46.619 28.9681 46.4911 29.064C45.8831 29.544 45.5791 30.136 45.5791 30.84C45.5791 31.544 45.8191 32.168 46.2991 32.712C46.7027 33.1694 47.2082 33.4345 47.8154 33.5073ZM50.5614 30.6566L50.5718 30.67C50.5711 30.6616 50.5704 30.6532 50.5696 30.6447L50.5614 30.6566ZM65.4324 39H74.2644L74.6004 28.296C74.6447 27.0997 74.7906 26.1105 75.0381 25.3284C75.5057 23.8508 76.3357 23.112 77.5284 23.112C78.0229 23.112 78.4545 23.2895 78.823 23.6444C79.599 24.3919 80.0954 25.9264 80.3124 28.248L81.2724 39H89.6724C89.819 37.8458 89.9511 36.7468 90.0686 35.7031C90.4608 32.2175 90.69 29.3484 90.7562 27.096C90.7697 26.6386 90.7764 26.2066 90.7764 25.8C90.7764 23.5991 90.3487 21.7002 89.4934 20.1031C89.1672 19.4942 88.7789 18.9291 88.3284 18.408C86.7284 16.52 84.8084 15.576 82.5684 15.576C81.7651 15.576 80.9964 15.6935 80.2622 15.9287C79.856 16.0588 79.4604 16.2249 79.0753 16.4269C78.6593 16.6453 78.2557 16.9056 77.8644 17.208C77.5225 17.4694 77.1744 17.7814 76.8199 18.1439C76.6103 18.3583 76.3984 18.5903 76.1844 18.84C75.7756 19.3168 75.4717 19.7051 75.2724 20.0047C75.1909 20.1273 75.1268 20.2351 75.0804 20.328L75.2724 16.248H64.4244L65.4324 39ZM95.2075 34.6917C95.4678 35.0907 95.7568 35.4548 96.0744 35.784C96.4823 36.1992 96.9218 36.5672 97.3928 36.8879C98.6123 37.7183 100.043 38.2318 101.685 38.4284C102.194 38.4895 102.724 38.52 103.274 38.52C103.654 38.52 104.022 38.5015 104.378 38.4645C105.224 38.3766 106.004 38.1843 106.716 37.8876C107.449 37.5824 108.112 37.1668 108.704 36.6406C109.233 36.1711 109.705 35.6135 110.121 34.968C110.315 34.6671 110.497 34.3471 110.666 34.008C110.698 34.328 110.714 34.648 110.714 34.968C110.714 35.213 110.705 35.4542 110.686 35.6914C110.565 37.1893 110.062 38.5321 109.178 39.72C108.154 41.096 106.554 41.784 104.378 41.784C104.019 41.784 103.651 41.7531 103.274 41.6912C102.761 41.607 102.232 41.4654 101.686 41.2665C101.517 41.205 101.346 41.138 101.174 41.0656C100.965 40.9772 100.753 40.8807 100.538 40.776L98.4264 45.096L99.4824 45.816C100.124 46.2245 101.099 46.6329 102.406 47.0414C102.532 47.0809 102.662 47.1205 102.794 47.16C102.849 47.1774 102.903 47.1944 102.958 47.2112C104.41 47.657 105.891 47.88 107.402 47.88C114.533 47.88 118.545 44.1866 119.438 36.7999C119.511 36.1978 119.563 35.5712 119.594 34.92L120.41 16.248H109.274L109.562 18.936C109.469 18.8198 109.373 18.7049 109.274 18.5914C108.854 18.1097 108.379 17.6524 107.849 17.2193C107.645 17.0519 107.432 16.8881 107.21 16.728C107.097 16.6502 106.981 16.5763 106.863 16.5064C106.111 16.0625 105.26 15.7775 104.31 15.6512C103.933 15.6011 103.539 15.576 103.13 15.576C100.826 15.576 98.7304 16.312 96.8424 17.784C96.1031 18.3616 95.4639 19.1476 94.9248 20.1422C94.7171 20.5252 94.5243 20.9391 94.3464 21.384C93.8607 22.662 93.5691 24.134 93.4713 25.8C93.4467 26.2197 93.4344 26.6517 93.4344 27.096C93.4344 30.3479 94.0254 32.8798 95.2075 34.6917ZM106.12 31.9162C106.254 31.9329 106.393 31.942 106.538 31.9437C106.554 31.9439 106.57 31.944 106.586 31.944C107.514 31.944 108.202 31.496 108.65 30.6C108.871 30.1873 109.042 29.734 109.161 29.2399C109.301 28.6611 109.37 28.0265 109.37 27.336C109.37 25.8863 109.191 24.7352 108.833 23.8826C108.322 22.6648 107.445 22.056 106.202 22.056C106.024 22.056 105.855 22.0716 105.693 22.103C104.145 22.4037 103.37 24.1481 103.37 27.336C103.37 27.976 103.418 28.6 103.514 29.208C103.642 29.816 103.946 30.424 104.426 31.032C104.849 31.5339 105.414 31.8286 106.12 31.9162ZM106.83 26.9688C106.711 26.9474 106.626 26.944 106.586 26.944C106.474 26.944 106.345 26.9532 106.202 26.976C106.118 26.9897 106.029 27.0081 105.936 27.0324C106.048 27.0506 106.139 27.056 106.202 27.056C106.312 27.056 106.442 27.0465 106.586 27.022C106.664 27.0089 106.745 26.9914 106.83 26.9688ZM124.038 12.8074C124.139 13.001 124.254 13.1872 124.383 13.366C124.513 13.5467 124.658 13.7198 124.817 13.8853C124.915 13.9878 125.019 14.0873 125.129 14.184C126.151 15.0858 127.399 15.5641 128.873 15.6187C128.968 15.6222 129.064 15.624 129.161 15.624C130.73 15.624 132.053 15.1624 133.13 14.2391C133.151 14.2209 133.172 14.2025 133.193 14.184C133.279 14.108 133.362 14.0303 133.441 13.9507C133.461 13.9311 133.48 13.9114 133.499 13.8916C133.72 13.6623 133.914 13.4183 134.08 13.1597C134.369 12.7076 134.575 12.2108 134.696 11.6692C134.782 11.2823 134.825 10.8726 134.825 10.44C134.825 10.3591 134.824 10.2789 134.821 10.1996C134.774 8.9726 134.366 7.93685 133.597 7.09236C133.472 6.95519 133.337 6.82306 133.193 6.69598C132.105 5.73598 130.745 5.25598 129.113 5.25598C127.513 5.25598 126.169 5.73598 125.081 6.69598C124.025 7.62398 123.497 8.87198 123.497 10.44C123.497 10.8704 123.54 11.2782 123.625 11.6634C123.715 12.0699 123.853 12.4513 124.038 12.8074ZM137.726 9.91198H152.846L150.686 31.56L159.374 31.08L156.638 39H140.606L137.726 9.91198ZM130.214 17.6966C129.869 17.7173 129.518 17.7299 129.161 17.7342C129.065 17.7354 128.969 17.736 128.873 17.736C128.631 17.736 128.39 17.7308 128.152 17.7206C127.198 17.6795 126.27 17.5567 125.367 17.3521C124.581 17.174 123.813 16.934 123.065 16.632L124.601 39H133.673L135.305 16.632L134.489 16.92C134.143 17.033 133.789 17.1342 133.425 17.2238C132.423 17.4705 131.353 17.6281 130.214 17.6966ZM163.499 34.452C163.976 35.1581 164.54 35.7941 165.192 36.36C167.656 38.44 170.696 39.48 174.312 39.48C176.136 39.48 177.816 39.208 179.352 38.664C179.75 38.5148 180.12 38.3678 180.462 38.2229C180.931 38.0241 181.347 37.8294 181.712 37.6387C182.107 37.4317 182.44 37.2295 182.712 37.032C182.82 36.9483 182.926 36.8639 183.03 36.7787C183.186 36.6508 183.336 36.5212 183.482 36.3898C183.869 36.04 184.221 35.678 184.536 35.304L181.56 31.704C181.483 31.7703 181.405 31.8348 181.326 31.8974C181.18 32.013 181.031 32.1222 180.88 32.2252C180.646 32.3836 180.405 32.5271 180.157 32.6555C179.094 33.2052 177.898 33.48 176.568 33.48C176.338 33.48 176.114 33.4697 175.896 33.4492C174.992 33.364 174.192 33.1023 173.496 32.664C172.981 32.3073 172.594 31.8402 172.337 31.2627C172.334 31.256 172.331 31.2493 172.328 31.2425C172.2 30.9514 172.105 30.6324 172.042 30.2857C172.029 30.2156 172.018 30.1443 172.008 30.072L172.536 30.168C173.171 30.291 173.859 30.3746 174.6 30.4188C174.699 30.4247 174.799 30.4299 174.9 30.4344C174.945 30.4364 174.99 30.4383 175.035 30.44C175.304 30.4502 175.579 30.4556 175.861 30.456C175.873 30.456 175.884 30.456 175.896 30.456C176.124 30.456 176.348 30.4526 176.568 30.4457C177.878 30.4049 179.042 30.2424 180.058 29.9582C181.142 29.6548 182.059 29.2127 182.808 28.632C182.816 28.6255 182.824 28.6191 182.833 28.6126C183.315 28.2333 183.724 27.8203 184.059 27.3734C184.825 26.3531 185.208 25.1566 185.208 23.784C185.208 23.6461 185.205 23.5098 185.199 23.3751C185.102 21.0101 184.144 19.1464 182.328 17.784C180.408 16.312 177.624 15.576 173.976 15.576C169.208 15.576 165.688 17.24 163.416 20.568C162.253 22.2383 161.631 24.2422 161.552 26.5796C161.547 26.75 161.544 26.9221 161.544 27.096C161.544 28.9711 161.803 30.6384 162.32 32.0979C162.624 32.9541 163.017 33.7388 163.499 34.452ZM190.065 25.6229C188.489 26.7705 187.671 28.5403 187.61 30.9322C187.608 31.0111 187.607 31.0907 187.606 31.1709C187.606 31.1886 187.606 31.2063 187.606 31.224C187.606 31.7358 187.636 32.225 187.696 32.6917C187.899 34.2819 188.448 35.6106 189.344 36.678C189.533 36.9037 189.738 37.1177 189.958 37.32C191.558 38.76 193.59 39.48 196.054 39.48C197.366 39.48 198.586 39.3273 199.715 39.022C200.238 38.8804 200.742 38.706 201.226 38.4988C202.422 37.9865 203.499 37.2736 204.454 36.36L204.742 39H212.662L212.902 36.888C212.907 36.8507 212.912 36.8136 212.917 36.7765C213.483 32.4138 213.766 28.9949 213.766 26.52C213.766 23.6929 213.122 21.4136 211.835 19.6819C209.799 16.9446 206.155 15.576 200.902 15.576C199.628 15.576 198.362 15.6845 197.105 15.9017C195.432 16.1908 193.774 16.6723 192.132 17.3463C192.128 17.3482 192.123 17.3501 192.118 17.352L193.318 21.672C193.494 21.6238 193.667 21.5778 193.838 21.5339C194.917 21.2563 195.896 21.0639 196.774 20.9568C197.101 20.917 197.413 20.889 197.712 20.8728C197.918 20.8616 198.117 20.856 198.31 20.856C200.72 20.856 202.283 21.7456 202.999 23.5247C203.158 23.9194 203.275 24.3578 203.35 24.84C202.647 24.5367 201.895 24.2908 201.094 24.1025C200.265 23.9073 199.383 23.7738 198.449 23.7022C198.403 23.6987 198.357 23.6953 198.31 23.692C197.813 23.6573 197.301 23.64 196.774 23.64C195.77 23.64 194.825 23.7359 193.937 23.9276C192.589 24.2187 191.375 24.7309 190.294 25.464C190.25 25.493 190.207 25.5224 190.164 25.5522C190.131 25.5755 190.098 25.5991 190.065 25.6229ZM200.018 33.5073C200.133 33.5211 200.252 33.528 200.374 33.528C200.816 33.528 201.237 33.4904 201.64 33.4153C202.55 33.2453 203.36 32.8828 204.07 32.328L203.782 29.16C203.182 28.7516 202.527 28.4965 201.818 28.3947C201.583 28.3609 201.341 28.344 201.094 28.344C200.326 28.344 199.66 28.4976 199.097 28.805C198.956 28.8817 198.822 28.9681 198.694 29.064C198.086 29.544 197.782 30.136 197.782 30.84C197.782 31.544 198.022 32.168 198.502 32.712C198.906 33.1694 199.411 33.4345 200.018 33.5073ZM202.765 30.6566L202.775 30.67C202.774 30.6616 202.774 30.6532 202.773 30.6447L202.765 30.6566ZM218.068 39H226.708L227.62 27.192C227.716 26.456 227.924 25.688 228.243 24.888C228.355 24.625 228.488 24.389 228.642 24.1801C229.124 23.5239 229.813 23.1341 230.709 23.0108C230.746 23.0056 230.784 23.0009 230.823 22.9966C230.996 22.9775 231.176 22.968 231.363 22.968C232.144 22.968 232.886 23.0746 233.591 23.2878C234.33 23.5117 235.028 23.8531 235.684 24.312L236.835 16.44C236.765 16.3991 236.694 16.3596 236.623 16.3216C235.688 15.8245 234.671 15.576 233.572 15.576C233.49 15.576 233.409 15.5773 233.329 15.58C232.894 15.5945 232.471 15.6483 232.061 15.7412C232 15.7551 231.939 15.7698 231.878 15.7854C231.692 15.8333 231.508 15.8895 231.327 15.9538C230.004 16.4244 228.82 17.3347 227.775 18.6847C227.608 18.9011 227.444 19.1289 227.283 19.368L226.083 16.248H216.628L218.068 39ZM239.292 39H248.124L248.46 28.296C248.504 27.0997 248.65 26.1105 248.898 25.3284C249.365 23.8508 250.195 23.112 251.388 23.112C251.882 23.112 252.314 23.2895 252.682 23.6444C253.458 24.3919 253.955 25.9264 254.172 28.248L255.132 39H263.532C264.268 33.208 264.636 28.808 264.636 25.8C264.636 22.76 263.82 20.296 262.188 18.408C260.588 16.52 258.668 15.576 256.428 15.576C255.624 15.576 254.856 15.6935 254.122 15.9287C253.715 16.0588 253.32 16.2249 252.935 16.4269C252.519 16.6453 252.115 16.9056 251.724 17.208C251.382 17.4694 251.034 17.7814 250.679 18.1439C250.47 18.3583 250.258 18.5903 250.044 18.84C249.635 19.3168 249.331 19.7051 249.132 20.0047C249.05 20.1273 248.986 20.2351 248.94 20.328L249.132 16.248H238.284L239.292 39ZM171.955 25.0722C172.229 25.1883 172.533 25.2815 172.866 25.3516C173.035 25.3871 173.211 25.4167 173.395 25.4404C173.413 25.4427 173.431 25.445 173.449 25.4472C173.661 25.4729 173.882 25.4909 174.113 25.5013C174.14 25.5025 174.167 25.5036 174.193 25.5046C174.259 25.507 174.325 25.5089 174.391 25.5101C174.46 25.5114 174.529 25.512 174.6 25.512C174.889 25.512 175.161 25.4999 175.416 25.4757C175.483 25.4693 175.55 25.462 175.615 25.4539C175.548 25.4529 175.481 25.4515 175.416 25.4498C175.124 25.442 174.853 25.4273 174.6 25.4067C174.561 25.4035 174.522 25.4001 174.483 25.3967C174.422 25.3911 174.362 25.3851 174.302 25.3789C174.183 25.3662 174.068 25.3521 173.957 25.3368C173.879 25.2471 173.799 25.1456 173.723 25.032H175.704L176.054 25.3826C176.091 25.3751 176.128 25.3672 176.164 25.359L175.823 25.032H176.864C176.864 25.0565 176.862 25.0926 176.856 25.1377C176.994 25.0777 177.122 25.0104 177.24 24.936C177.88 24.52 178.2 23.992 178.2 23.352C178.2 22.712 177.944 22.184 177.432 21.768C176.952 21.352 176.28 21.144 175.416 21.144C175.234 21.144 175.055 21.161 174.877 21.1949C174.857 21.1988 174.836 21.2029 174.816 21.2073C174.744 21.2228 174.672 21.2411 174.6 21.2623C174.266 21.3609 173.94 21.521 173.622 21.7426C173.484 21.8389 173.347 21.9468 173.212 22.0663C173.13 22.1386 173.049 22.2152 172.968 22.296C172.232 23.064 171.864 23.976 171.864 25.032C171.894 25.0457 171.924 25.0591 171.955 25.0722Z" fill="#662E9B"/>
</svg>
